<svg xmlns="http://www.w3.org/2000/svg" width="314" height="77" fill="none"><path fill="#e1b7e0" d="M202.32 17.387 306.632 0l6.684 52.085-108.307.715z"/><path fill="#000" d="M33.02 58.137c-4.851.385-7.9-2.541-8.376-8.553-.477-6.012 2.071-9.381 6.923-9.766 4.159-.33 6.93 1.709 7.88 5.865l-2.285.181-.025-.31c-.18-2.27-1.878-4.134-5.42-3.853-3.62.287-5.131 2.406-4.79 6.715l.156 1.961c.342 4.309 2.168 6.163 5.788 5.876 3.543-.281 4.921-2.442 4.733-4.815l-.029-.362 2.337-.185c-.221 4.38-2.655 6.91-6.891 7.246M43.365 57.056l-1.093-13.778 1.977-.157.173 2.193.36-.028c.7-1.588 1.87-2.485 3.898-2.646l2.541-.202.154 1.935-3.415.271c-2.31.184-3.275 1.377-3.062 4.06l.65 8.179zM59.281 56.053c-4.004.317-6.597-2.073-6.96-6.64-.361-4.567 1.821-7.336 5.826-7.654 3.877-.308 6.35 1.885 6.688 6.142l.067.851-10.217.81.014.181c.262 3.303 1.64 4.725 4.439 4.503 2.721-.215 3.418-1.855 3.373-2.422l-.002-.026 2.233-.177c-.565 2.641-2.483 4.195-5.46 4.432m-4.693-8.04 8.06-.64c-.379-2.826-1.767-4.04-4.36-3.834-2.618.208-3.772 1.623-3.7 4.474M71.92 55.05c-2.875.228-4.682-1.057-4.874-3.482-.19-2.4 1.444-3.931 4.652-4.523l4.077-.714-.051-.645c-.19-2.4-1.252-3.405-3.485-3.228-2.337.185-3.11 1.519-3.04 2.396l.002.026-2.259.18c.433-2.684 2.201-4.174 5.205-4.412 3.517-.28 5.48 1.356 5.75 4.762l.703 8.85-1.977.157-.163-2.064-.334.026c-.727 1.59-2.024 2.498-4.206 2.67m-2.632-3.868c.117 1.47 1.259 2.185 3.313 2.022 2.438-.193 3.61-1.377 3.44-3.518l-.145-1.832-3.465.612c-2.266.414-3.263 1.194-3.15 2.613zM85.02 53.75c-1.001.08-1.558-.421-1.635-1.402l-.84-10.578-3.158.25-.133-1.677 3.158-.25-.311-3.922 2.182-.173.311 3.922 4.39-.349.133 1.677-4.39.349.827 10.423 4.39-.348.133 1.677zM97.555 53.015c-4.005.318-6.597-2.072-6.96-6.64-.361-4.566 1.821-7.336 5.826-7.654 3.877-.307 6.35 1.885 6.688 6.143l.067.851-10.217.81.014.181c.262 3.303 1.64 4.725 4.44 4.503 2.72-.216 3.417-1.855 3.372-2.422l-.002-.026 2.233-.177c-.565 2.64-2.483 4.195-5.46 4.431m-4.693-8.04 8.061-.639c-.38-2.826-1.768-4.04-4.36-3.834-2.62.208-3.773 1.623-3.701 4.474M105.719 52.108l-.203-2.554 2.644-.21.203 2.554zM123.803 50.933c-4.852.385-7.9-2.541-8.377-8.553s2.071-9.381 6.923-9.766c4.159-.33 6.93 1.709 7.88 5.865l-2.285.182-.024-.31c-.18-2.27-1.878-4.135-5.421-3.854-3.62.287-5.131 2.407-4.789 6.715l.156 1.961c.341 4.309 2.168 6.163 5.788 5.876 3.542-.281 4.921-2.442 4.733-4.815l-.029-.361 2.336-.186c-.221 4.38-2.655 6.91-6.891 7.246M138.584 49.76c-3.004.238-4.737-1.416-5.013-4.9l-.697-8.771 2.183-.174.661 8.334c.215 2.71 1.336 3.815 3.672 3.63 2.362-.188 3.295-1.456 3.08-4.166l-.662-8.333 2.182-.174 1.094 13.778-1.977.157-.166-2.09-.359.029c-.699 1.613-1.996 2.52-3.998 2.68M148.836 48.687l-1.093-13.778 1.976-.157.174 2.193.36-.029c.7-1.587 1.869-2.485 3.897-2.646l2.542-.201.153 1.935-3.414.27c-2.31.184-3.275 1.377-3.062 4.06l.649 8.18zM162.778 47.84c-2.875.228-4.682-1.057-4.875-3.482-.19-2.4 1.445-3.931 4.653-4.523l4.077-.713-.051-.645c-.191-2.4-1.252-3.406-3.486-3.229-2.336.186-3.109 1.519-3.039 2.396l.002.026-2.259.18c.433-2.683 2.201-4.174 5.204-4.412 3.517-.28 5.481 1.356 5.751 4.762l.703 8.85-1.977.157-.164-2.064-.334.026c-.726 1.59-2.023 2.498-4.205 2.67m-2.632-3.868c.117 1.471 1.258 2.185 3.312 2.022 2.439-.193 3.611-1.377 3.441-3.518l-.145-1.832-3.465.612c-2.267.414-3.264 1.194-3.151 2.613zM175.878 46.54c-1.002.08-1.558-.421-1.636-1.401l-.839-10.579-3.158.25-.133-1.677 3.158-.25-.312-3.922 2.183-.173.311 3.922 4.39-.349.133 1.678-4.39.348.827 10.424 4.39-.349.133 1.677zM188.413 45.806c-4.005.317-6.597-2.073-6.96-6.64s1.821-7.336 5.826-7.654c3.876-.308 6.349 1.884 6.687 6.142l.068.851-10.218.81.015.181c.262 3.303 1.64 4.725 4.439 4.503 2.721-.216 3.418-1.855 3.372-2.422l-.002-.026 2.234-.177c-.566 2.641-2.483 4.195-5.461 4.432m-4.694-8.04 8.061-.64c-.379-2.826-1.767-4.04-4.36-3.834-2.619.208-3.772 1.623-3.701 4.474M196.576 44.898l-.202-2.554 2.644-.21.203 2.554zM214.661 43.723c-4.852.385-7.9-2.541-8.377-8.553-.478-6.011 2.071-9.381 6.923-9.766 4.159-.33 6.93 1.709 7.88 5.866l-2.285.18-.025-.309c-.18-2.27-1.878-4.135-5.421-3.854-3.619.288-5.13 2.407-4.788 6.715l.155 1.961c.342 4.31 2.168 6.163 5.788 5.876 3.543-.28 4.921-2.441 4.733-4.815l-.029-.361 2.337-.186c-.221 4.38-2.655 6.91-6.891 7.246M230.596 42.458c-4.056.322-6.674-2.067-7.036-6.633-.363-4.567 1.846-7.339 5.902-7.66 4.031-.32 6.648 2.068 7.011 6.635.362 4.567-1.846 7.338-5.877 7.658m-.143-1.806c2.824-.224 4.012-1.85 3.75-5.153l-.082-1.032c-.262-3.302-1.692-4.72-4.516-4.497-2.824.224-4.012 1.85-3.75 5.153l.082 1.032c.262 3.303 1.692 4.721 4.516 4.497M239.919 41.459l-1.093-13.778 1.977-.157.165 2.09.36-.029c.698-1.613 1.97-2.519 3.998-2.68 3.004-.238 4.737 1.416 5.013 4.9l.696 8.772-2.208.175-.661-8.334c-.215-2.71-1.336-3.814-3.672-3.63-2.311.184-3.269 1.455-3.054 4.164l.661 8.334zM257.437 40.069c-1.001.08-1.558-.422-1.636-1.403l-.839-10.578-3.158.25-.133-1.677 3.158-.25-.311-3.922 2.182-.173.311 3.922 4.39-.349.133 1.678-4.39.348.827 10.424 4.39-.349.133 1.677zM264.833 39.482l-1.093-13.778 1.977-.157.174 2.193.359-.028c.701-1.588 1.87-2.485 3.898-2.646l2.541-.202.154 1.935-3.414.27c-2.311.184-3.275 1.377-3.062 4.06l.649 8.18zM280.801 38.474c-4.056.322-6.674-2.066-7.036-6.633-.363-4.567 1.846-7.339 5.902-7.66 4.03-.32 6.648 2.068 7.011 6.635.362 4.567-1.846 7.338-5.877 7.658m-.143-1.806c2.824-.224 4.012-1.85 3.75-5.153l-.082-1.032c-.262-3.302-1.692-4.72-4.516-4.497-2.824.224-4.012 1.85-3.75 5.153l.082 1.032c.262 3.303 1.692 4.721 4.516 4.497M291.587 37.359c-.975.077-1.532-.424-1.61-1.404l-1.357-17.107 2.156-.17 1.345 16.95 3.518-.278.133 1.677zM297.56 36.885l-.203-2.555 2.644-.21.203 2.555z"/><path fill="#000" d="M63.271 74.374c.04.005.159-.007.238-.013q1.047-.08 1.234.092c-.823.032-1.59.023-2.458.122-.158.019-.403-.023-.61-.038-.307.156.097.227.516.314 1.183-.18 1.5.015 2.365.024l.179-.338c.418-.06.865-.127 1.356-.2.414.074 1.46-.01 1.236.167.484-.007.867-.015 1.25-.02q.525.001 1.067.001c.401-.325.59-.323-1.051-.349.071-.058.074-.112.567-.145.803-.053 1.639-.141 2.118-.023.1.022.428.005.61.018.335.024.641.055 1.086.096.064-.006.344-.033.624-.058l-.418.108c.58.004 1.162.011 1.706.015l.514-.135c-.094-.035-.22-.07-.273-.11-.28-.206-1.04-.235-2.381-.09-.298.035-.592.067-.983.112l.193-.222c1.936-.173 3.41-.114 4.967-.096.109.047.218.097.296.133.483-.033.9-.074 1.239-.079.38-.005.69.03 1.03.044.467-.369 1.637-.356 2.82-.36l-.14-.126.503-.04c.265.063.487.115.737.176q.834-.264 2.053-.258c.145 0 .326.002.466-.014.627-.07.992-.029 1.407-.003.08.005.202-.005.452-.008-.158-.03-.253-.041-.31-.062-.07-.022-.112-.053-.16-.074 1.332-.215 1.339-.218 2.547-.227.629-.005 1.22.006 1.835.01.043 0 .129-.018.182-.025l-.357-.128c.339-.019.703-.025.774-.047.7-.215 1.795-.218 2.692-.368.063.068.092.113.146.153.096.074.727.088.934.016-.193-.024-.39-.047-.61-.072.518-.139 1.057-.142 1.516-.143.673-.003 1.245-.048 1.774-.213.139.103.242.179.896.121l.825-.316c.324-.02.812-.025 1.005-.066.736-.161 1.403-.14 2.096-.166.397-.015.825-.043 1.18-.04.347.002.733-.148 1.058-.068.03.006.698-.094 1.074-.141.111-.014.241-.02.353-.028.422.126.932.169 1.296.11l-.01-.131c.176-.017.294-.032.413-.041 1.086-.078 2.267-.06 3.172-.327.039-.012.158-.021.233-.027.404-.027.777-.11 1.233-.065.251.025.989-.07 1.478-.109.198.074.084.186.803.13l.033-.18 3.35-.095-.219-.108c1.034-.104 2.034-.225 3.027-.299.989-.073 2.117-.215 2.935-.118.084.01.36-.023.594-.039l-.219-.075c.963-.124 1.905-.243 2.84-.362.262-.032.685-.08.809-.064.42.042.9-.021 1.378-.056.975-.067 1.221-.067 2.228-.015.265.01.529.016.954.033-.085-.066-.131-.104-.178-.142 1.165-.14 2.056.015 3.331-.198l-1.143.007.045-.031 2.227-.202c.137.173 1.005.037 1.531.043q.246-.167 1.774-.258c-.013.026-.029.053-.038.073 1.754-.097 3.46-.303 5.191-.379 1.049-.046 2.183-.17 3.279-.26 1.89-.16 3.784-.333 5.675-.48 1.028-.082 2.057-.117 3.087-.173-.655-.09.914-.251.203-.312 1.502-.139 2.884-.268 4.246-.393q.175.112 1.849-.043c.066-.033.239-.086.19-.107-.286-.137.399-.359-.207-.47-.077-.013.016-.073.129-.105.839-.233.166-.367.188-.545-.674-.021-.483-.168-.324-.253.302-.163.327-.308.409-.454.086-.157.489-.323.498-.483.007-.14-.582-.221-.18-.393.025-.01-.031-.025-.082-.032-.314-.034-.268-.1-.256-.173.01-.05-.218-.1-.462-.117-1.233-.086-2.859.04-4.175.315-.727.15-1.105.172-1.82.136-.411-.02-.905-.04-1.391-.012-1.671.09-3.356.202-5.041.31-.36.023-.78.062-1.083.112-1.054.178-2.201.174-3.269.306-.132.016-.324.015-.462.015-.764-.015-1.51.067-2.25.181a8.3 8.3 0 0 1-1.5.114c-.391-.006-1.026.07-1.524.129-.437.049-.833.124-1.293.114-.718-.016-1.42.068-2.14.17-.329.045-.729.105-1.036.112-.664.022-1.26.084-1.924.153-.563.056-1.206.034-1.812.046l-.123.01c-1.033.11-2.054.244-3.103.238-.192-.002-.546.06-.81.097-.304.044-.604.093-.883.143a6 6 0 0 1-1.37.103c-.621-.026-1.306.054-2.02.119-1.326.122-2.667.223-4.001.328-.112.01-.228.002-.34.002-.587-.003-1.183.055-1.807.119-.503.05-1.074.096-1.537.102-.914.011-1.781.08-2.635.215a11.5 11.5 0 0 1-1.542.133c-1.202.034-2.506.196-3.7.196-.224.001-.568.048-.847.081-.811.095-1.598.158-2.438.194-.696.033-1.453.115-2.178.184-.528.05-1.124.148-1.558.151-1.027.015-1.94.13-2.901.247-.344.041-.72.082-1.07.102-.99.059-1.962.125-2.913.267a6 6 0 0 1-.812.065c-1.014 0-1.983.093-2.985.236a11 11 0 0 1-1.06.101c-.988.034-1.948.113-2.926.233-.304.038-.65.06-.974.082-.975.067-1.952.108-2.9.256a4 4 0 0 1-.47.037c-1.26-.014-2.48.124-3.677.311-.461.073-.85.093-1.25.069-.55-.035-1.154 0-1.852.094-.892.118-1.817.225-2.845.351-.67-.103-1.656-.025-2.712.112-.509.066-1.02.137-1.544.192-.287.031-.738.059-.884.042-.844-.111-1.886-.02-3.041.108-.592.066-1.288.136-1.82.142-1.005.012-1.93.12-2.895.224-.308.032-.68.076-.949.075-1.001.007-1.923.11-2.878.248a10 10 0 0 1-1.15.091c-.88.009-1.71.06-2.62.186-.487.066-1.117.144-1.551.148-1.42.018-2.745.156-4.094.344-.247.034-.62.078-.805.073-1.16-.034-2.284.12-3.46.257-.7.081-1.514.16-2.172.173-.928.02-1.769.09-2.65.205-.752.098-1.532.166-2.243.183-.85.045-1.74.06-2.59.1-.51.004-.876-.003-1.365-.057-.446-.056-.9-.12-1.377-.158-.48-.035-.977-.096-1.513-.103-.413-.004-.848-.059-1.292-.102-.223-.027-.445-.045-.665-.08q-.325-.061-.643-.117c-.803-.143-1.492-.3-2.235-.398a11 11 0 0 1-.932-.21c-.447-.115-.873-.243-1.299-.363-.214-.056-.425-.114-.643-.172q-.311-.094-.633-.187a7 7 0 0 1-1.072-.415c-.35-.173-.701-.318-1.06-.457-.348-.15-.7-.293-1.066-.437-.29-.108-.566-.248-.851-.379-.279-.137-.567-.262-.826-.417q-.5-.292-.988-.552a13 13 0 0 0-.962-.501 4.2 4.2 0 0 1-1.127-.748c-.299-.258-.6-.533-.938-.788-.342-.252-.678-.52-1.029-.789-.36-.261-.731-.6-.993-.895-.639-.708-1.282-1.33-1.938-1.986a8 8 0 0 1-.62-.657c-.189-.23-.377-.458-.475-.696a5 5 0 0 0-.559-.974 9 9 0 0 0-.633-.873 4 4 0 0 1-.465-.745 4 4 0 0 1-.286-.73c-.08-.287-.21-.65-.36-.945a14 14 0 0 0-.345-.74L4.87 56.4c-.053-.124-.1-.252-.15-.379a9 9 0 0 1-.35-1.172c-.077-.34-.156-.7-.24-1.016q-.145-.553-.298-1.115-.115-.563-.238-1.139c.016-.2.092-.431.084-.668-.042-.708-.025-1.412-.137-2.048a17 17 0 0 1-.076-1.278c.09-.188.16-.305.22-.46.06-.153.142-.355.159-.513.052-.434.154-.883.22-1.32.093-.434.19-.858.238-1.247.056-.297.13-.554.211-.8.082-.247.18-.483.315-.731.082-.158.167-.315.255-.484-.002-.2-.013-.395.002-.605.151-.244.28-.438.394-.651.131-.262.308-.488.478-.724.169-.24.315-.494.447-.798a4.3 4.3 0 0 1 1.09-1.5c.094-.086.19-.189.248-.244.168-.292.36-.556.539-.82.182-.26.349-.525.561-.768.308-.362.666-.77 1.023-1.055.299-.25.5-.464.76-.744.273-.284.554-.574.825-.86q.444-.417.956-.802c.239-.184.5-.35.74-.533.246-.176.477-.367.723-.543.497-.352.962-.735 1.473-1.088.243-.175.503-.369.775-.544.276-.17.55-.33.8-.457.448-.233.682-.386 1.03-.598q.322-.198.66-.4c.228-.128.46-.255.686-.379.457-.26.935-.482 1.408-.675 1.114-.46 2.13-.845 3.191-1.275.55-.222 1.195-.443 1.803-.545.72-.085 1.459-.305 2.145-.496q.41-.124.815-.227c.27-.066.545-.107.816-.154q.407-.067.812-.12c.272-.033.546-.049.823-.068.469-.11.945-.22 1.454-.28a17 17 0 0 1 1.638-.15c.545-.02 1.215-.104 1.762-.184.762-.11 1.408-.176 2.014-.11.131.015.337.012.558.017 1.067-.235 2.39-.337 3.632-.419 1.59-.107 3.115-.275 4.663-.426.592-.058 1.105-.11 1.656-.098.221.005.721-.035.888-.073.568-.137 1.252-.18 1.938-.249 1.899-.187 3.779-.3 5.669-.416.929-.057 1.872-.16 2.81-.234.982-.078 1.964-.156 2.943-.22.529-.036 1.057-.045 1.61-.183a72 72 0 0 0-3.536.082c-.63.03-1.473.078-1.785.03-.37-.054-.772-.02-1.198-.01l-1.986.143.011-.043 1.978-.101c.005-.131.457-.22 1.172-.277l1.23-.098c.77-.064 1.534-.136 1.908-.307-.91-.06-1.617-.176-3.07-.075.629-.142 1.177-.16 1.682-.184.76-.035 1.065-.168 1.582-.256.586-.1.158-.15.2-.18.544-.108 1.21-.197 1.239-.25.091-.169.847-.215 1.382-.316.848-.162 1.728-.24 2.67-.318.173-.014.34-.052.512-.077l-.024-.026c-.418.028-.835.053-1.231.079-.506-.17-.39-.22.795-.279.995-.048 1.91-.104 2.835-.258.228-.038.567-.05.851-.076l1.191-.122-1.873-.262c-.05.004-.305.024-.533.029-.863.018-1.87.137-2.62.08l.04-.004c-.245.03-.495.064-.733.08-.94.058-1.907.132-2.802.156-.53.014-.782-.1-1.508-.031-.047-.094.147-.16.653-.205.367-.032.74-.065 1.108-.088l2.38-.142c.638-.299 1.902-.33 2.963-.458-2.084.132-4.169.26-6.398.401l.449-.144-.118-.018c-.456.089-.916.175-1.429.275.267.029.446.05.676.077l-1.98.263c.376.093.683.17 1 .247-.858.09-1.723.18-2.638.274-.79-.11-.934-.104-2.532.137l.51.149c-.781.176-1.99.264-2.57.47-.064.02-.388.038-.593.054-.205.017-.48.022-.604.048-.719.155-1 .077-1.319.03l-.961.146-.487-.157c-1.127.16-.352.262-.812.383l.768.114c-.592.098-.723.05-.91.009-.207-.048-.328-.111-.88-.087-.868.041-1.72.064-2.615.096.223-.107.425-.207-.22-.211-.389.061.206.168-.65.19-.071-.03-.139-.058-.251-.11-.23.076-.381.119-.49.164a1.2 1.2 0 0 0-.26.135c-.148.11.35.31.737.268 1.16-.12.822.052 1.069.11-.454.073-.859.124-1.176.189-.373.077-.551.158-.304.22.173.044.504.065.767-.003.564-.143 1.333-.153 1.948-.252.1-.017.3-.008.455-.009-.385.07-.748.099-1.089.143-.347.044-.694.096-.716.18-.038.156-.665.242-1.427.302-.356.028-.712.051-1.144.082-.234.2-.031.382-.934.59-.092.022-.01.063-.006.096-1.01.05-1.12.028-.833-.137.063-.036.04-.087-.08-.097-.491-.034-.185-.106.164-.17.282-.05.63-.089 1.077-.15-.723-.081-.618-.226-.281-.401-.56.058-1.016.103-1.465.15-.205-.13.474-.189.837-.256.568-.101 1.205-.19 1.766-.277l-.02-.255c-1.02.053-1.906-.036-3.138.126-.036.137-.07.256-.103.387.119.039.982-.075.699.101l-2.58.001 1.256.277c-.235.05-.485.134-.773.16-.707.067-.892.145-.877.247.181.006.362.008.736.017-.596.11-1.01.192-1.47.265a4 4 0 0 1-.663.033c-.676-.086-1.565.026-2.481.102.787-.205 1.535-.398 2.346-.61l-1.352.015c.61-.07 1.101-.127 1.6-.183.045-.204-.693-.294-1.459-.37-.19.032-.382.062-.736.118l.245-.238c-.304-.056-.788-.088-.83-.163-.095-.143-.75-.152-1.43-.201.009.125.019.202.029.282a7 7 0 0 1 1.3.106c.18.033-.407.164-.456.14-.185-.098-1.103.056-1.248-.044-.042-.027-.352-.02-.723-.034-.092.163-.777.19-1.41.293.325.03.57.05.923.083l-1.129.142.136.118-.167.03c-.39-.036-.778-.047-1.16-.07-.41.206-.529.22-1.07.233-.253.009-.453-.003-.664-.012-.029 0 .027-.03.044-.045.309-.07.614-.15.945-.212-.409-.14-.49-.125-1.55.07.038.115.076.229.118.35-.346.104-.636.138-.94.19-.303.05-.621.105-1.01.253.392-.014.574.035-.191.336-.263-.026-.478-.049-.748-.077q-.27.181-.326.224l-.608.185q-.29.101-.574.199c-.38.133-.764.261-1.179.414.083-.135.172-.253.272-.398-.456.136-.834.194-1.422.447.352-.03.66-.058 1.027-.092-.384.167-.651.27-.818.358-.383.19-1.172.416-1.225.613-.32.112-.633.235-.92.405-.04-.019-.166-.009-.106-.067.124-.124.359-.265.67-.485-.53.234-.98.454-1.383.626a7 7 0 0 1-1.07.366c-.04.14.178.098.451.037.274-.058.6-.145.754-.121-.718.302-1.278.587-1.933.904l-.182.165q-.415.223-.808.438c-.219.118-.526.307-.639.34-.19.063-.172-.025.063-.213.085-.069.113-.121.19-.203q-.264.146-.475.267c-.137.086-.265.163-.386.24-.272-.107-1.285.582-2.025.964.222.06.384.106.547.155.141-.05.573-.355.317-.025l-.3.004c-.288.252-.615.503-.856.754-.365.37-.668.556-.962.682-.116.051-.181.045-.252.065-.481.415-.799.788-1.358 1.218.099-.212.2-.395.314-.597-.174.123-.32.207-.451.323-.136.114-.277.251-.416.376l.017-.023c.166.137 0 .513-.33 1.095l-.514.409c-.136.423.31.12.907-.39.03.112.052.205.087.33.278-.331.517-.554.737-.792.144-.011.22.036-.047.36-.47.563-.226.571-.092.625.16.065.668-.335 1.212-.777-.083.143-.14.248-.21.368-.275.226-.54.428-.824.69.092.15.178.288.265.426-.326.355-.642.698-.922 1.052-.29.35-.575.69-.829 1.048l-.213-.323c-.091.085-.243.228-.39.371l-.008-.089c.244-.354.494-.708.742-1.01.184-.092.295-.146.421-.206q.161-.216.317-.427c.116-.138.23-.284.366-.445-.092.016-.162-.04-.284.062-.265.216-.492.362-.734.557a4 4 0 0 0-.804.854c.443-.71-.209-.12-.267-.214.269-.403.548-.8.788-1.147-.287.114-.515.202-.764.303a10 10 0 0 1-.577.579c-.181.176-.334.297-.373.261-.105-.092-.38.242-.584.398-.321.235-.619.495-.905.716-.188.146-.36.246-.63.734L3.87 37c-.162.294-.307.56-.477.875l.15.348c-.212.469-.357.876-.539 1.32-.215.031-.45.167-.828.87-.022-.088-.021-.264-.06-.213-.165.211-.32.34-.487.532-.158.194-.322.45-.51.909.153-.121.338-.343.423-.319.13.038.057.392-.17.912.023.601.34.174.668-.164-.1.532-.243.96-.396.99-.21.045-.526.344-.42-.499-.141.492-.251.796-.322 1.13l.167.289q-.142.393-.257.718c-.019.311.254.019.064.72-.07-.1-.131-.193-.217-.32-.094.543-.201.978-.239 1.372-.118.283-.237.56-.402.953.136.064.219.108.347.17L0 48.787c.091.099.166.182.252.261.081.248.068.53.044.82-.028.293-.051.59.018.87-.106.125-.188.224-.291.343.149.37.255.711.409.961.143.254.269.514.381.977.199.68.217.764-.004.815-.021.005-.044-.008-.077-.013l.242.67c-.127-.085-.207-.143-.295-.2.039.212.093.394.16.637-.137-.033-.346-.343-.296.247.239.18.403.88.655 1.32.284.567.375 1.257.729 1.751.006.262.12.649.05.63-.112-.04-.334-.328-.49-.523-.03.229-.034.36.04.594.072.235.19.582.483 1.22-.016-.383-.086-.953.278-.689.085.292.193.554.333.914.02-.205.035-.343.05-.509.327.376.612.736.972 1.123q-.143.097-.27.186c.234.177.36.125.557.327.11.111.236.28.362.462l.415.528c.103.017-.206-.502.129-.158.082.22.172.441.307.684.139.24.336.496.594.785l-.784-.677c.139.385-.43-.354-.306.024-.298-.431-.526-.745-.752-1.084-.064.005-.137.008-.23.012.24.35.457.614.62.838.183.343-.166.15.223.666.3.189.301-.169 1.017.69 0 .039-.005.117-.012.213.397.177.66.296.923.415l-.415-.484q.283.236.396.468c.13.241.252.491.467.828.103-.06.15-.115.232-.127.086-.012.207.014.306.023.228.23.403.434.548.615.152.178.273.336.379.486.215.296.356.57.624.847-.428-.1-.88-.338-1.022-.165.439.247.659.372.81.458.171.103.298.2.545.389-.066-.006-.128-.01-.244-.017.425.293.811.695 1.206.836l.164.154c.082.078.157.156.15.153-.211-.016-.458-.067-.652-.101.157.288.44.631.833.974q.287.263.626.542c.224.183.473.359.723.54l.676.083.027.026c-.268-.283-.678-.563-1.124-.86-.43-.309-.918-.619-1.328-.957.196.009.38.014.565.016.252.167.448.308.63.413.544.33 1.125.63 1.683.963.572.323 1.143.64 1.738.976.148.08.422.209.48.218.38.05.883.357 1.376.552.072-.003.144-.006.184-.006.263.124.515.246.764.366q.382.166.741.32l.32-.025c.446.236.876.41 1.296.604l.18.016-.967-.64c.2.02.423.041.711.072.267.174.44.288.672.443.337.051.661.076 1.011.115.217.08.455.168.5.186.212.257.405.454.642.706.362-.001.619-.005.879-.006.035.075.213.136.54.194.059.012.146.106.234.171.411.026.705.04 1.04.071.143.011.52.074.55.09.3.164 1.224.241 1.54.386.022.01.617.074.71.061.3-.049.57.025.912.09.213.038.422.08.588.112.31-.019.592-.013.861.001.272.007.523.029.772.06.493.058.953.158 1.449.202.182-.076.325-.134.42-.175.72.001 1.411-.04 2.096-.078.685-.023 1.359-.107 2.05-.165.046.044.108.095.14.123l2.249-.15.249-.093c.489.05 1.116-.122 1.62-.1q-.05.28.2.28c.102-.076.143-.154.322-.23.203-.086.748-.143 1.023-.1.63.094 1.466.059 2.445-.052-.17.189.456.187 1.432.123-1.173.219-2.15.402-3.127.583l.067.023c.55-.05 1.1-.096 1.602-.141.42.033.82.063 1.231.097.282-.097.518-.18.754-.263-.135-.004-.334-.007-.787-.016l1.834-.145-.689-.473 1.023-.151c.426-.059 1.812-.057 1.723.011-.238.186.394.08.84.042l-.036.009.067-.204 2.382-.256c.137.048.224.091.39.123.091.018.392.022.47.01.161-.03.366-.09.325-.112-.23-.119.34-.091.718-.116l-.734.281c.833.155 1.968.182 3.378.031l.957.108c.196-.13.188-.263.57-.344.533-.112.988-.22 1.254-.37l.264.08c.483-.106.928-.25 1.614-.17zM3.263 40.941c.25-.265.234-.158.03.461-.128.074-.14-.251-.4.255l-.017-.21c-.014-.279-.119-.228-.362.354.02-.43.223-.748.469-1.066.03-.251.053-.465.085-.705.378-.384.074.57.456.137-.101.413-.282.734-.447.848-.192.13-.129.336-.22.463.134-.183.27-.392.41-.54zm.562-1.852c-.072.039-.149.078-.267.144.224-.423.427-.78.628-1.116.207-.354.367-.71.505-.93.349-.307.582-.515.89-.788-.041.084-.113.274-.182.358-.195.23-.363.447-.488.647a1.6 1.6 0 0 0-.216.564l-.184.226q.021.051.051.147c-.182.254-.333.5-.483.753l-.284.022.027-.027zm63.32 34.771c.689-.035 1.3-.07 1.978-.103-.123.135-.428.251-1.076.344-.44.063-.954.143-1.305.056zM52.806 19.962c.522-.036 1.098-.079 1.968-.14-.602.12-1.09.176-1.185.29-.096.113-.833.175-1.737.274zm-11.993 1.75q.724.074 1.405.145c-.356.12-.602.073-.887.09-.28.014-.598.075-1.067.14l-.176-.257.73-.116zM4.797 38.286c.593-.817.646-.84.808-.432-.11.07-.169.105-.227.143-.055.032-.107.067-.19.118-.089.203-.163.362-.322.72l-.07-.546zM3.65 43.31l-.303.1c.137-.282.268-.543.393-.799l.43-.765c-.028.315-.128.563-.244.79-.101.23-.215.44-.276.674M12.1 29.46c.494-.24.89-.448 1.314-.629l-.049.074c-.507.316-.986.66-1.63 1.103.104-.176.219-.333.36-.55zm-1.035 1.332c-.492.497-.864.922-1.434 1.207.212-.284.995-.857.725-.891l.194-.16c.169-.056.35-.107.519-.156zm23.936-7.547a2 2 0 0 1-.29-.055c.338-.071.683-.143 1.073-.202.136-.02.462-.017.568.002.063.01-.091.077-.237.108-.253.054-.572.096-.815.134-.147.01-.262.021-.299.016zM4.381 39.968c.045-.338-.174-.26.022-.808l.455-.05c-.177.32-.297.537-.478.858M66.546 17.9c-.936.147-1.86.168-2.795.203.956-.177 1.865-.16 2.795-.203m-34.79 4.223c.269-.175.272-.175 1.129-.232-.353.073-.705.146-1.129.232M142.691 68.38c.623-.044 1.051-.072 1.483-.104l-.011.051c-.494.101-.94.142-1.472.05zm-84.86 6.335c.124.063.211.109.388.198-.56.003-.85.006-1.25.007.326-.079.525-.125.862-.205m-23.97-53.028c.06-.025.08-.043.123-.046.516-.058.983-.098.816.074-.42-.011-.682-.02-.94-.028M8.2 31.758c.253-.177.479-.343.458-.19-.346.29-.598.485-.458.19m-3.22 7.298s.1-.092.106-.07c.031.117-.075.327-.348.627q.121-.28.242-.557M61.06 20.194l-.08-.044 1.072-.13.08.047zm-4.884 54.54c.213-.045.312-.072.441-.088.172-.022.367-.03.748-.06-.383.148-.689.167-1.19.15zM2.728 42.54s.062-.226.065-.226c.065-.047.124-.08.183-.112l-.086.275c-.056.024-.115.056-.166.063zm7.03-9.844c.334-.225.334-.222.122.121-.047-.049-.082-.08-.121-.121m-5.555 4.224c-.033.034-.096.103-.1.098-.006-.028.008-.082.011-.127.037-.036.074-.07.125-.121-.015.048-.025.1-.039.153zM8.901 31.6l-.092.069q.05-.102.1-.204l.112-.078c-.041.07-.086.14-.124.213zm-6.51 8.89-.09.135.012-.263.09-.127-.011.258zm28.394-18.534s.219-.068.24-.067a1.7 1.7 0 0 1 .303.018c.014.002-.135.042-.269.083-.12-.013-.236-.015-.274-.031zm23.642-1.497-.002-.027.906-.072-.005.028z"/><path fill="#000" d="M167.761 66.703s-.019.007-.027.014q-.1.072-.23-.06c.097-.033.212-.034.274-.122.013-.015.071.016.111.024-.052-.127-.151-.18-.262-.244-.06.156-.223.001-.351.003.063.092.117.177.177.267l-.07.173c-.101-.053-.201.022-.274-.12-.063.01-.112.023-.165.03q-.074.006-.152.01c.137.259.112.26.358.266.023.046.058.09.007.12-.082.051-.146.126-.284.04-.029-.018-.064-.001-.098-.01-.063-.014-.123-.037-.212-.064l-.051.052-.008-.092-.25.006.009.114c.036.028.071.053.104.083.163.16.29.178.391.047q.03-.04.073-.097c.045.074.074.125.106.175-.168.156-.413.125-.645.124l-.122-.102c-.048.03-.081.068-.128.075-.052.006-.116-.016-.172-.026.157.297-.015.3-.181.316.042.044.066.067.094.098q-.038.029-.047.038c-.076-.047-.138-.087-.211-.131q.042.217-.136.225c-.022.002-.047.004-.057.016-.048.062-.123.032-.197.015-.014-.001-.027.003-.057.01.04.023.061.032.081.044a1 1 0 0 1 .069.06c-.058.182-.058.185-.223.207-.086.01-.178.005-.264.01-.006 0-.007.014-.01.022l.128.096c-.035.02-.084.03-.08.046.031.176-.122.19-.159.316l-.113-.119c-.057-.057-.155-.06-.142-.003q.06.025.13.051c.009.117-.063.123-.127.13-.094.008-.146.051-.122.186-.081-.08-.142-.14-.199-.088q.033.122.077.26c-.035.019-.101.027-.102.06-.006.135-.112.127-.196.153-.047.015-.092.04-.145.042-.05.001-.015.124-.109.064-.009-.004-.044.082-.066.123-.007.012-.02.018-.031.028-.136-.096-.233-.127-.248-.073q.038.05.081.103c-.016.015-.023.026-.034.036-.106.072-.284.07-.25.29.001.008-.01.018-.018.024-.042.026-.045.093-.134.064-.048-.016-.098.066-.142.1-.072-.056-.123-.146-.192-.093.029.04.057.076.104.142-.145.04-.279.072-.415.108.03.029.059.051.095.085-.084.093-.151.199-.246.268s-.169.191-.344.122c-.017-.007-.037.022-.061.035q.051.041.077.058-.09.162-.184.316c-.018.03-.051.069-.076.06-.086-.03-.115.025-.163.057-.098.064-.134.064-.307.035-.042-.007-.084-.01-.154-.015.051.052.081.08.109.111-.08.12-.3.007-.353.19.064-.005.111-.012.158-.018l.013.024c-.065.06-.133.125-.192.183-.125-.136-.166-.02-.244-.02q.066.134-.097.222l-.038-.058c-.19.096-.307.273-.507.353-.122.046-.208.156-.307.239-.17.145-.333.303-.512.437-.097.074-.219.112-.332.166.147.066.022.207.159.25-.129.124-.246.24-.362.355q-.093-.088-.236.052c.011.027.017.068.038.086.123.105.159.289.311.369.017.01.041.058.046.085.023.194.198.291.302.434.109.01.169.129.199.199.055.132.14.248.216.365.083.127.127.264.22.387.084.11.217.17.265.311 0 .009.021.02.029.023.063.023.098.076.139.134a.27.27 0 0 0 .135.087c.228.054.38-.06.401-.288.012-.127.052-.147.177-.126.071.014.152.021.203-.005.182-.09.352-.193.525-.296a.2.2 0 0 0 .087-.099c.041-.15.205-.158.277-.275.01-.015.037-.017.057-.016.117.004.173-.067.21-.168.025-.069.058-.105.142-.103.059.001.103-.067.138-.117.033-.044.042-.106.115-.104.112.005.159-.068.199-.155.019-.04.04-.09.079-.101.081-.023.127-.077.181-.137.046-.051.15-.037.23-.055q.007 0 .013-.01c.079-.095.145-.212.295-.218.027-.002.04-.053.054-.085a.5.5 0 0 0 .038-.123c.014-.071.053-.108.132-.097.104.014.154-.054.213-.115.114-.112.244-.203.37-.3.01-.009.03-.002.047-.003.086-.002.132-.056.183-.113a.3.3 0 0 1 .157-.096c.121-.018.205-.08.243-.198.023-.071.068-.103.138-.122.151-.04.237-.18.406-.194.03-.003.052-.043.072-.073a.5.5 0 0 1 .228-.18c.079-.031.134-.108.196-.169.044-.043.071-.128.129-.136.137-.022.196-.121.26-.224a.26.26 0 0 1 .091-.091c.104-.056.202-.12.251-.24.012-.03.043-.06.076-.06.144-.008.224-.092.278-.217.017-.04.05-.079.091-.09a.48.48 0 0 0 .273-.215.23.23 0 0 1 .088-.074c.099-.06.212-.103.258-.23a.06.06 0 0 1 .045-.034c.186 0 .274-.122.331-.283.023-.06.063-.083.134-.066.1.023.164-.013.208-.092.053-.102.121-.197.19-.305.157.077.248.002.317-.117.031-.059.06-.12.101-.168.023-.026.068-.055.1-.041.184.08.278-.003.367-.116.043-.056.102-.12.171-.13.135-.02.2-.114.273-.206.023-.03.05-.068.086-.071.138-.017.204-.108.259-.224a.15.15 0 0 1 .107-.082c.119-.014.207-.063.26-.17.029-.059.071-.126.129-.134.19-.026.294-.151.371-.314.014-.029.042-.067.07-.064.185.016.25-.117.335-.239.05-.07.12-.14.202-.158a.35.35 0 0 0 .249-.19.45.45 0 0 1 .203-.183.9.9 0 0 0 .253-.219c.044-.05.08-.081.158-.085.142-.008.266-.049.33-.19a.6.6 0 0 1 .097-.153l.579-.68a1.855 1.855 0 0 0-.869-2.975.5.5 0 0 1-.157-.077.47.47 0 0 0-.289-.094.22.22 0 0 1-.125-.032.76.76 0 0 0-.343-.115c-.051-.007-.096-.05-.127-.093-.07-.1-.172-.123-.28-.148a.7.7 0 0 1-.244-.092c-.091-.063-.182-.111-.305-.088-.08.015-.137-.008-.172-.09-.055-.14-.173-.186-.301-.215-.065-.015-.135-.045-.173-.101-.091-.132-.228-.169-.379-.182-.096-.01-.212-.003-.241-.12-.041-.17-.171-.19-.296-.18s-.176-.048-.221-.153c-.024-.057-.067-.11-.119-.127-.086-.03-.186-.025-.274-.048-.065-.018-.119-.064-.177-.095-.05-.03-.095-.074-.152-.083-.133-.023-.27-.029-.41-.043-.015-.04-.018-.113-.05-.133-.1-.064-.206-.109-.345-.07-.085.024-.166.019-.255.029-.004-.059-.002-.103-.011-.139s-.018-.088-.043-.097c-.14-.042-.279-.109-.429-.094-.116.009-.175-.034-.234-.11q-.024-.035-.056-.074-.085.062-.174.123c-.026-.04-.043-.08-.073-.106-.069-.061-.078-.206-.204-.187-.13.018-.187-.067-.206-.199-.002-.028-.012-.055-.016-.071-.108-.017-.211-.02-.3-.054a.32.32 0 0 1-.16-.15.16.16 0 0 0-.121-.093c-.117-.027-.243-.034-.318-.142-.107-.154-.26-.222-.436-.256-.085-.016-.181-.039-.229-.107-.043-.061-.09-.052-.147-.061-.141-.025-.303-.03-.407-.113a.72.72 0 0 0-.412-.174c-.085-.007-.177-.02-.205-.123-.035-.123-.122-.169-.228-.163-.169.008-.269-.09-.355-.223-.149.02-.284.005-.387-.103-.046-.05-.13-.063-.206-.062-.103 0-.177-.025-.185-.159-.002-.027-.015-.051-.029-.084-.184.07-.321-.008-.442-.093-.156-.108-.338-.155-.511-.219-.066-.026-.126-.043-.154-.124-.011-.033-.064-.062-.094-.049-.104.047-.17 0-.247-.028-.215-.075-.391-.217-.572-.353-.088-.066-.2-.099-.296-.153a3 3 0 0 1-.298-.18c-.053-.035-.091-.093-.196-.043.076.148.161.275.269.375.057.051.135.118.133.199-.004.095.04.114.074.159l.2.126-.023.035-.177-.161c-.063.114-.137.133-.213.095-.043-.022-.082-.052-.125-.071-.084-.038-.168-.073-.274.027.03.168.02.356.164.453-.111.042-.154-.01-.199-.054-.067-.067-.152.012-.227.024-.085.012-.083.11-.101.13-.087.024-.174.02-.201.061-.087.135-.161.08-.246.1-.134.036-.229-.006-.328-.06-.018-.01-.047.004-.072.006l-.012.026.119.088c-.051.21-.082.24-.187.14-.088-.085-.174-.15-.312-.134-.033.003-.061-.029-.092-.04l-.138-.045-.005.464c.006.005.032.017.048.043.066.093.188.117.211.26l-.001-.006c.026.01.059.01.083.027.089.068.189.128.26.217.043.052.001.186.084.216-.043.087-.088.122-.143.095a1 1 0 0 1-.114-.063l-.223-.178c-.186.18-.286.048-.416.025.198.149.4.297.613.459-.047.034-.074.05-.1.07l.002.03q.101-.028.224-.057c-.005-.061-.005-.1-.006-.153.087.007.165.015.258.021l.054-.339.306.096c-.004.196.011.208.23.202q.02-.092.038-.193c.138-.055.258.022.395-.081.015-.013.045.013.066.025.02.013.042.042.064.034.122-.043.102.062.1.14q.077-.006.134-.005c-.019.08-.031.14-.046.2.151.004.15-.183.238-.232.003-.07.004-.129.004-.196.086-.01.071.05.062.11-.009.068-.034.137.014.186.076.075.144.161.218.248-.067.063-.129.127-.089.21.055-.004.07-.173.135-.083l-.037.129c.053-.038.082-.057.111-.082a1 1 0 0 0 .082-.084c.064-.078.129-.312.083-.328-.134-.042-.029-.148-.016-.23.064-.005.118.002.169-.014a.19.19 0 0 0 .128-.152c.009-.06-.001-.12-.053-.096-.107.053-.161-.035-.25-.028-.014.001-.022-.032-.034-.05.057-.01.098.009.14.014.045.005.092.004.134-.067.079-.129.16-.127.242-.083.037.02.07.045.114.072.111-.143.189-.328.348-.396.016-.007.032-.053.046-.082.09.085.087.119-.013.224-.02.024-.044.07-.043.093.016.09-.038.115-.093.125-.044.009-.084-.002-.142-.006.007.162-.071.274-.179.386.066.02.117.038.169.053-.051.138-.123.105-.18.118-.088.018-.172.013-.25.017l-.121.224c.092.082.107.27.265.286.069-.114.128-.214.197-.325.01-.049-.1-.06.005-.177.053.1.102.193.168.325l.052-.4c.041-.015.096-.056.128-.041.077.03.13-.014.178-.104-.01-.027-.018-.054-.039-.108.091-.019.159-.04.225-.043.025-.002.058.028.06.053.002.16.114.176.21.227l-.449.233.096.157c-.074-.016-.133-.028-.193-.043-.103.173-.098.343-.085.506l.105-.008-.131.175c-.007.087.008.175-.025.247-.067.14-.019.222-.016.364.061-.108.098-.177.137-.248a.6.6 0 0 1-.024-.266c.004-.053.107-.089.098-.063-.031.103.086.105.047.208-.012.029.008.067.022.132.087-.132.12-.032.191-.01l.012-.232.107.076c.023-.055.04-.09.054-.125l.02.004q-.007.148-.013.291c.104-.086.121-.084.125.032.004.053-.005.112-.009.169.001.008-.015.017-.023.026-.035-.014-.066-.028-.104-.042-.064.204-.063.217.025.308q.085-.157.175-.318c.1-.01.051.183.179.148.004-.095.033-.187.164-.223l-.072.288.096-.08.254.139-.178.217c.039.04.028.146.107.16.015-.102.027-.192.041-.3.051.013.077.03.107.023.066-.017.094.126.187-.001.02.043.053.068.103.061-.015.032-.025.078-.046.093-.042.034-.09.055-.165.094.126.052.204.12.19.29.119-.155.05-.286.109-.447l.178.198.053-.032q.041.04.079.083c.021.023.062.04.061.07-.001.05-.04.095-.091.113-.019.007-.037.025-.063.047.036.033.065.056.092.08-.095.2.051.246.072.407.069-.151.118-.261.171-.374.005-.042-.051-.074.047-.146-.023.066-.039.106-.053.15.056-.005.112-.001.172-.014.088-.021.106.033.099.117-.003.034-.017.069-.023.097.067.045.164-.002.211.095-.06.05-.116.093-.179.14.014.03.019.06.034.078s.039.027.057.043h-.006a1 1 0 0 1 .365-.358c.011.038.022.076.033.106.133-.12.126-.239.07-.346l.151-.207-.147-.027c.03-.075.067-.142.138-.157.124-.02.175-.145.233-.255.071-.134.019-.217-.038-.304l.104-.067c.028.045.057.085.088.133.082-.127.16-.242.234-.357l.367.133-.177.263c.008.021.019.057.033.092l-.036.042c-.062-.012-.125-.027-.181-.036.014-.071.021-.116.029-.164l-.171-.009c-.016.049-.055.113-.045.137.047.1-.008.291.15.304-.151.031-.098.172-.151.249-.08.006-.163.016-.232.024l-.083.327c.053.038.107.145.062.221-.061.103-.016.139-.014.2-.001.098.001.195-.005.293-.003.067-.015.13.069.134.047-.107.1-.214.147-.321l.147.019c.055-.074.114-.149.159-.208l.248-.034c-.057.127-.091.25-.007.327-.034.036-.083.077-.082.09.014.116-.048.28.074.346.019-.077.022-.155.056-.216.054-.094.127-.122.189-.068.156-.108.163-.264.179-.414.109-.036.162.004.123.1-.06.133-.094.3-.27.361l.168.046.125-.147q.041.05.074.092c.065-.022.097-.181.176-.104-.046.054-.086.105-.145.174.077.027.138.05.192.071.009.072.017.144.031.243.062-.091.099-.15.159-.239l.057.264c.051-.063.092-.11.132-.161.128-.08.137.103.246.075-.027.083-.046.152-.071.229.098-.06.179-.104.257-.163a.45.45 0 0 1 .234-.11c.125-.01.134 0 .054.154-.007.015-.017.027-.029.047l.134-.03-.125.155c.032.011.058.02.092.035-.052.08-.144.142-.103.248.1-.114.191-.06.289-.087.123-.035.147.13.279.07.005.072.026.151.003.184-.043.056-.113.084-.174.122-.025.175-.021.189.129.33.019-.146.008-.293.139-.424.024.049.047.091.079.153.021-.094.035-.156.049-.233.1-.04.191-.079.297-.12q-.06.125-.118.237c.073-.058.125-.152.184-.179.064-.03.134.004.196.01.037-.05-.024-.121.066-.148.015.116.042.217.158.23l-.2.08c.008.109-.12.069-.117.18-.064-.037-.114-.06-.163-.09a3 3 0 0 1-.09.138q.089.025.143.042c.03.061-.074.156.005.197.084-.065.13-.247.279-.195-.006.02-.02.063-.032.117.114-.11.192-.18.27-.253l-.076-.047q.065-.02.07.05c.008.064.019.13.032.224.046-.085.073-.14.105-.19s.07-.095.103-.14c.16.08.108.307.165.426-.119.124-.235.205-.316.374q.195-.108.277-.09c-.02.027-.041.051-.079.099.083-.012.111.094.203.02 0 0 .033.065.028.07-.064.078-.133.15-.19.21-.039.25.046.407.141.55l.183-.192v.008c-.005-.204-.175-.204-.27-.316l.178-.22c.037.013.061.033.092.034a.72.72 0 0 1 .47.171c.016.016.053.027.066.015.091-.083.138-.011.198.012.021-.021.041-.045.052-.057q.083.073.158.135c.041-.045.064-.072.09-.099q.053.099.101.184l.037-.027.001-.305c.042-.028.087-.06.147-.103v.212l.193-.105.043.058c-.047.168-.089.308-.14.483.079-.06.134-.103.189-.147-.023.058-.007.08.03.09.005 0-.014.071-.024.117.07-.031.123-.06.178-.076.021-.007.065.012.063.023-.019.116.123.082.105.198 0 0 .009.008.023.012l-.091-1.15c-.013.017-.027.046-.023.063.026.09-.016.087-.072.083q-.05-.002-.089.002c.002.231-.182.162-.327.163q.05.112.075.172c-.103.14-.199.264-.3.398-.033-.034-.073-.072-.091-.093l-.225.143q.007.031.02.077c-.101-.034-.084.107-.168.097q-.163-.221-.196-.22c.033.062.071.124.093.186.022.07-.021.122-.085.09-.148-.069-.242-.033-.316.065-.09-.152-.175-.143-.277-.084l.09-.493-.024-.018c-.05.043-.096.089-.14.129l-.234-.066.053.217c.02-.002.051.001.12.004-.07.056-.113.087-.17.134q.202.193.383.368-.027.07-.054.13c-.023.052-.22.065-.25.009-.079-.15-.105-.059-.144-.025l-.001-.008c.038.055.079.11.113.16-.06.078-.119.15-.182.227-.048-.035-.087-.071-.13-.093-.023-.012-.071-.014-.073-.002a.16.16 0 0 0 .021.093c.105.092.006.075-.031.1q-.034-.116-.065-.23c-.21-.114-.389-.124-.496.01l-.201-.077c.05.105.134.21.128.28a.6.6 0 0 0 .047.306c-.044-.032-.065-.045-.086-.06-.004.09.02.208-.127.15zm-2.195-5.185c-.002-.095.032-.126.141-.12-.023.071-.114.143-.061.214l-.066.055c-.078.062-.099.122-.02.17-.114.072-.128-.007-.146-.084l-.18.115c.007-.157.191-.189.185-.336.09-.032.126.01.108.09-.024.093.051.017.056.048-.007-.053-.019-.102-.02-.155zm-.384.111c-.011.037-.022.074-.037.134-.064-.028-.111-.058-.168-.073s-.121-.013-.16-.015l-.022-.275c.017-.004.065-.03.075-.014.05.077.111.108.211.028l.02.046c.016-.018.038-.048.066-.081q.05.043.096.085l-.081.176zm2.341 5.52a6 6 0 0 1-.218.101c-.064-.11-.091-.202-.055-.283.023-.055.048-.12.151-.06zm-8.579-8.19c-.053-.034-.109-.071-.197-.126.098-.03.158-.012.218-.1.063-.087.138-.048.247-.02-.107.097-.182.168-.268.247m1.635-.009q-.013-.156-.021-.302c.082-.06.076.01.1.034.027.023.076.008.138.014l-.114.246-.105.008zm4.636 2.294c-.096-.12-.092-.14.095-.379-.01.049-.013.074-.02.1q-.006.031-.015.085l.146-.026c-.09.096-.147.16-.206.22m1.13-.438c-.023.055-.044.11-.077.187l-.147-.276c.16-.088.143.078.224.089m-2.829.28-.044-.278.026-.025c.06.049.119.094.196.158-.054.046-.107.086-.178.145m.383-.234c.118-.023.21-.03.211.126-.075.036-.149-.086-.222.084l-.027-.02zm-2.194-2.502a1 1 0 0 1-.007.084c-.057.019-.114.04-.17.042-.019.001-.037-.045-.036-.073-.001-.016.043-.056.067-.064.044-.014.083-.012.119-.015.015.01.026.015.027.023zm3.924 2.669c-.095.066-.136.184-.25.212.04-.092.08-.182.122-.283.047.027.079.044.125.068zm-8.587-2c.133-.01.203.09.282.175-.148.032-.2-.095-.282-.175m4.31.746q-.1.114-.175.042zm-1.209 12.479-.148.095-.032-.042c.01-.084.047-.12.177-.053zm8.183-5.862c-.057-.048-.096-.084-.174-.153.078-.007.117-.012.172-.02-.001.065 0 .104.002.17zm-7.305-6.532c-.015.012-.025.027-.031.025-.063-.015-.112-.039-.016-.17.022.066.036.104.047.142zm2.659 2.063c-.013-.055-.028-.098.028-.164.038.05.061.093-.028.164m1.844-1.028s.002-.04.01-.051c.046-.054.08-.043.093.051a1 1 0 0 1-.103 0m-7.002-3.17-.016.05-.132-.024.018-.051.133.025zm10.028 8.636c-.003.036-.001.061-.008.076-.013.017-.034.027-.068.055-.035-.123-.003-.14.078-.132zm-2.714-4.802s-.039-.002-.037-.005q.015-.05.028-.1l.048.002q-.02.052-.039.1zm-1.412-1.001q-.014-.076.079-.132zm.158 1.53s.007.025.002.028c-.013.015-.026.024-.042.037q0-.015-.005-.033l.042-.031zm-.805-.48.007.016-.06.05-.007-.022zm1.375.605.01.027-.073.056-.008-.027zm-3.848-2.127-.04.017a.2.2 0 0 1-.003-.067c0-.006.024-.013.048-.023-.003.03.002.053-.005.075zm-2.221-1.755-.012.023-.093-.05.014-.024.094.05z"/><path fill="#000" d="M63.271 74.374c.04.005.159-.007.238-.013q1.047-.08 1.234.092c-.823.032-1.59.023-2.458.122-.158.019-.403-.023-.61-.038-.307.156.097.227.516.314 1.183-.18 1.5.015 2.365.024l.179-.338c.418-.06.865-.127 1.356-.2.414.074 1.46-.01 1.236.167.484-.007.867-.015 1.25-.02q.525.001 1.067.001c.401-.325.59-.323-1.051-.349.071-.058.074-.112.567-.145.803-.053 1.639-.141 2.118-.023.1.022.428.005.61.018.335.024.641.055 1.086.096.064-.006.344-.033.624-.058l-.418.108c.58.004 1.162.011 1.706.015l.514-.135c-.094-.035-.22-.07-.273-.11-.28-.206-1.04-.235-2.381-.09-.298.035-.592.067-.983.112l.193-.222c1.936-.173 3.41-.114 4.967-.096.109.047.218.097.296.133.483-.033.9-.074 1.239-.079.38-.005.69.03 1.03.044.467-.369 1.637-.356 2.82-.36l-.14-.126.503-.04c.265.063.487.115.737.176q.834-.264 2.053-.258c.145 0 .326.002.466-.014.627-.07.992-.029 1.407-.003.08.005.202-.005.452-.008-.158-.03-.253-.041-.31-.062-.07-.022-.112-.053-.16-.074 1.332-.215 1.339-.218 2.547-.227.629-.005 1.22.006 1.835.01.043 0 .129-.018.182-.025l-.357-.128c.339-.019.703-.025.774-.047.7-.215 1.795-.218 2.692-.368.063.068.092.113.146.153.096.074.727.088.934.016-.193-.024-.39-.047-.61-.072.518-.139 1.057-.142 1.516-.143.673-.003 1.245-.048 1.774-.213.139.103.242.179.896.121l.825-.316c.324-.02.812-.025 1.005-.066.736-.161 1.403-.14 2.096-.166.397-.015.825-.043 1.18-.04.347.002.733-.148 1.058-.068.03.006.698-.094 1.074-.141.111-.014.241-.02.353-.028.422.126.932.169 1.296.11l-.01-.131c.176-.017.294-.032.413-.041 1.086-.078 2.267-.06 3.172-.327.039-.012.158-.021.233-.027.404-.027.777-.11 1.233-.065.251.025.989-.07 1.478-.109.198.074.084.186.803.13l.033-.18 3.35-.095-.219-.108c1.034-.104 2.034-.225 3.027-.299.989-.073 2.117-.215 2.935-.118.084.01.36-.023.594-.039l-.219-.075c.963-.124 1.905-.243 2.84-.362.262-.032.685-.08.809-.064.42.042.9-.021 1.378-.056.975-.067 1.221-.067 2.228-.015.265.01.529.016.954.033-.085-.066-.131-.104-.178-.142 1.165-.14 2.056.015 3.331-.198l-1.143.007.045-.031 2.227-.202c.137.173 1.005.037 1.531.043q.246-.167 1.774-.258c-.013.026-.029.053-.038.073 1.754-.097 3.46-.303 5.191-.379 1.049-.046 2.183-.17 3.279-.26 1.89-.16 3.784-.333 5.675-.48 1.028-.082 2.057-.117 3.087-.173-.655-.09.914-.251.203-.312 1.502-.139 2.884-.268 4.246-.393q.175.112 1.849-.043c.066-.033.239-.086.19-.107-.286-.137.399-.359-.207-.47-.077-.013.016-.073.129-.105.839-.233.166-.367.188-.545-.674-.021-.483-.168-.324-.253.302-.163.327-.308.409-.454.086-.157.489-.323.498-.483.007-.14-.582-.221-.18-.393.025-.01-.031-.025-.082-.032-.314-.034-.268-.1-.256-.173.01-.05-.218-.1-.462-.117-1.233-.086-2.859.04-4.175.315-.727.15-1.105.172-1.82.136-.411-.02-.905-.04-1.391-.012-1.671.09-3.356.202-5.041.31-.36.023-.78.062-1.083.112-1.054.178-2.201.174-3.269.306-.132.016-.324.015-.462.015-.764-.015-1.51.067-2.25.181a8.3 8.3 0 0 1-1.5.114c-.391-.006-1.026.07-1.524.129-.437.049-.833.124-1.293.114-.718-.016-1.42.068-2.14.17-.329.045-.729.105-1.036.112-.664.022-1.26.084-1.924.153-.563.056-1.206.034-1.812.046l-.123.01c-1.033.11-2.054.244-3.103.238-.192-.002-.546.06-.81.097-.304.044-.604.093-.883.143a6 6 0 0 1-1.37.103c-.621-.026-1.306.054-2.02.119-1.326.122-2.667.223-4.001.328-.112.01-.228.002-.34.002-.587-.003-1.183.055-1.807.119-.503.05-1.074.096-1.537.102-.914.011-1.781.08-2.635.215a11.5 11.5 0 0 1-1.542.133c-1.202.034-2.506.196-3.7.196-.224.001-.568.048-.847.081-.811.095-1.598.158-2.438.194-.696.033-1.453.115-2.178.184-.528.05-1.124.148-1.558.151-1.027.015-1.94.13-2.901.247-.344.041-.72.082-1.07.102-.99.059-1.962.125-2.913.267a6 6 0 0 1-.812.065c-1.014 0-1.983.093-2.985.236a11 11 0 0 1-1.06.101c-.988.034-1.948.113-2.926.233-.304.038-.65.06-.974.082-.975.067-1.952.108-2.9.256a4 4 0 0 1-.47.037c-1.26-.014-2.48.124-3.677.311-.461.073-.85.093-1.25.069-.55-.035-1.154 0-1.852.094-.892.118-1.817.225-2.845.351-.67-.103-1.656-.025-2.712.112-.509.066-1.02.137-1.544.192-.287.031-.738.059-.884.042-.844-.111-1.886-.02-3.041.108-.592.066-1.288.136-1.82.142-1.005.012-1.93.12-2.895.224-.308.032-.68.076-.949.075-1.001.007-1.923.11-2.878.248a10 10 0 0 1-1.15.091c-.88.009-1.71.06-2.62.186-.487.066-1.117.144-1.551.148-1.42.018-2.745.156-4.094.344-.247.034-.62.078-.805.073-1.16-.034-2.284.12-3.46.257-.7.081-1.514.16-2.172.173-.928.02-1.769.09-2.65.205-.752.098-1.532.166-2.243.183-.85.045-1.74.06-2.59.1-.51.004-.876-.003-1.365-.057-.446-.056-.9-.12-1.377-.158-.48-.035-.977-.096-1.513-.103-.413-.004-.848-.059-1.292-.102-.223-.027-.445-.045-.665-.08q-.325-.061-.643-.117c-.803-.143-1.492-.3-2.235-.398a11 11 0 0 1-.932-.21c-.447-.115-.873-.243-1.299-.363-.214-.056-.425-.114-.643-.172q-.311-.094-.633-.187a7 7 0 0 1-1.072-.415c-.35-.173-.701-.318-1.06-.457-.348-.15-.7-.293-1.066-.437-.29-.108-.566-.248-.851-.379-.279-.137-.567-.262-.826-.417q-.5-.292-.988-.552a13 13 0 0 0-.962-.501 4.2 4.2 0 0 1-1.127-.748c-.299-.258-.6-.533-.938-.788-.342-.252-.678-.52-1.029-.789-.36-.261-.731-.6-.993-.895-.639-.708-1.282-1.33-1.938-1.986a8 8 0 0 1-.62-.657c-.189-.23-.377-.458-.475-.696a5 5 0 0 0-.559-.974 9 9 0 0 0-.633-.873 4 4 0 0 1-.465-.745 4 4 0 0 1-.286-.73c-.08-.287-.21-.65-.36-.945a14 14 0 0 0-.345-.74L4.87 56.4c-.053-.124-.1-.252-.15-.379a9 9 0 0 1-.35-1.172c-.077-.34-.156-.7-.24-1.016q-.145-.553-.298-1.115-.115-.563-.238-1.139c.016-.2.092-.431.084-.668-.042-.708-.025-1.412-.137-2.048a17 17 0 0 1-.076-1.278c.09-.188.16-.305.22-.46.06-.153.142-.355.159-.513.052-.434.154-.883.22-1.32.093-.434.19-.858.238-1.247.056-.297.13-.554.211-.8.082-.247.18-.483.315-.731.082-.158.167-.315.255-.484-.002-.2-.013-.395.002-.605.151-.244.28-.438.394-.651.131-.262.308-.488.478-.724.169-.24.315-.494.447-.798a4.3 4.3 0 0 1 1.09-1.5c.094-.086.19-.189.248-.244.168-.292.36-.556.539-.82.182-.26.349-.525.561-.768.308-.362.666-.77 1.023-1.055.299-.25.5-.464.76-.744.273-.284.554-.574.825-.86q.444-.417.956-.802c.239-.184.5-.35.74-.533.246-.176.477-.367.723-.543.497-.352.962-.735 1.473-1.088.243-.175.503-.369.775-.544.276-.17.55-.33.8-.457.448-.233.682-.386 1.03-.598q.322-.198.66-.4c.228-.128.46-.255.686-.379.457-.26.935-.482 1.408-.675 1.114-.46 2.13-.845 3.191-1.275.55-.222 1.195-.443 1.803-.545.72-.085 1.459-.305 2.145-.496q.41-.124.815-.227c.27-.066.545-.107.816-.154q.407-.067.812-.12c.272-.033.546-.049.823-.068.469-.11.945-.22 1.454-.28a17 17 0 0 1 1.638-.15c.545-.02 1.215-.104 1.762-.184.762-.11 1.408-.176 2.014-.11.131.015.337.012.558.017 1.067-.235 2.39-.337 3.632-.419 1.59-.107 3.115-.275 4.663-.426.592-.058 1.105-.11 1.656-.098.221.005.721-.035.888-.073.568-.137 1.252-.18 1.938-.249 1.899-.187 3.779-.3 5.669-.416.929-.057 1.872-.16 2.81-.234.982-.078 1.964-.156 2.943-.22.529-.036 1.057-.045 1.61-.183a72 72 0 0 0-3.536.082c-.63.03-1.473.078-1.785.03-.37-.054-.772-.02-1.198-.01l-1.986.143.011-.043 1.978-.101c.005-.131.457-.22 1.172-.277l1.23-.098c.77-.064 1.534-.136 1.908-.307-.91-.06-1.617-.176-3.07-.075.629-.142 1.177-.16 1.682-.184.76-.035 1.065-.168 1.582-.256.586-.1.158-.15.2-.18.544-.108 1.21-.197 1.239-.25.091-.169.847-.215 1.382-.316.848-.162 1.728-.24 2.67-.318.173-.014.34-.052.512-.077l-.024-.026c-.418.028-.835.053-1.231.079-.506-.17-.39-.22.795-.279.995-.048 1.91-.104 2.835-.258.228-.038.567-.05.851-.076l1.191-.122-1.873-.262c-.05.004-.305.024-.533.029-.863.018-1.87.137-2.62.08l.04-.004c-.245.03-.495.064-.733.08-.94.058-1.907.132-2.802.156-.53.014-.782-.1-1.508-.031-.047-.094.147-.16.653-.205.367-.032.74-.065 1.108-.088l2.38-.142c.638-.299 1.902-.33 2.963-.458-2.084.132-4.169.26-6.398.401l.449-.144-.118-.018c-.456.089-.916.175-1.429.275.267.029.446.05.676.077l-1.98.263c.376.093.683.17 1 .247-.858.09-1.723.18-2.638.274-.79-.11-.934-.104-2.532.137l.51.149c-.781.176-1.99.264-2.57.47-.064.02-.388.038-.593.054-.205.017-.48.022-.604.048-.719.155-1 .077-1.319.03l-.961.146-.487-.157c-1.127.16-.352.262-.812.383l.768.114c-.592.098-.723.05-.91.009-.207-.048-.328-.111-.88-.087-.868.041-1.72.064-2.615.096.223-.107.425-.207-.22-.211-.389.061.206.168-.65.19-.071-.03-.139-.058-.251-.11-.23.076-.381.119-.49.164a1.2 1.2 0 0 0-.26.135c-.148.11.35.31.737.268 1.16-.12.822.052 1.069.11-.454.073-.859.124-1.176.189-.373.077-.551.158-.304.22.173.044.504.065.767-.003.564-.143 1.333-.153 1.948-.252.1-.017.3-.008.455-.009-.385.07-.748.099-1.089.143-.347.044-.694.096-.716.18-.038.156-.665.242-1.427.302-.356.028-.712.051-1.144.082-.234.2-.031.382-.934.59-.092.022-.01.063-.006.096-1.01.05-1.12.028-.833-.137.063-.036.04-.087-.08-.097-.491-.034-.185-.106.164-.17.282-.05.63-.089 1.077-.15-.723-.081-.618-.226-.281-.401-.56.058-1.016.103-1.465.15-.205-.13.474-.189.837-.256.568-.101 1.205-.19 1.766-.277l-.02-.255c-1.02.053-1.906-.036-3.138.126-.036.137-.07.256-.103.387.119.039.982-.075.699.101l-2.58.001 1.256.277c-.235.05-.485.134-.773.16-.707.067-.892.145-.877.247.181.006.362.008.736.017-.596.11-1.01.192-1.47.265a4 4 0 0 1-.663.033c-.676-.086-1.565.026-2.481.102.787-.205 1.535-.398 2.346-.61l-1.352.015c.61-.07 1.101-.127 1.6-.183.045-.204-.693-.294-1.459-.37-.19.032-.382.062-.736.118l.245-.238c-.304-.056-.788-.088-.83-.163-.095-.143-.75-.152-1.43-.201.009.125.019.202.029.282a7 7 0 0 1 1.3.106c.18.033-.407.164-.456.14-.185-.098-1.103.056-1.248-.044-.042-.027-.352-.02-.723-.034-.092.163-.777.19-1.41.293.325.03.57.05.923.083l-1.129.142.136.118-.167.03c-.39-.036-.778-.047-1.16-.07-.41.206-.529.22-1.07.233-.253.009-.453-.003-.664-.012-.029 0 .027-.03.044-.045.309-.07.614-.15.945-.212-.409-.14-.49-.125-1.55.07.038.115.076.229.118.35-.346.104-.636.138-.94.19-.303.05-.621.105-1.01.253.392-.014.574.035-.191.336-.263-.026-.478-.049-.748-.077q-.27.181-.326.224l-.608.185q-.29.101-.574.199c-.38.133-.764.261-1.179.414.083-.135.172-.253.272-.398-.456.136-.834.194-1.422.447.352-.03.66-.058 1.027-.092-.384.167-.651.27-.818.358-.383.19-1.172.416-1.225.613-.32.112-.633.235-.92.405-.04-.019-.166-.009-.106-.067.124-.124.359-.265.67-.485-.53.234-.98.454-1.383.626a7 7 0 0 1-1.07.366c-.04.14.178.098.451.037.274-.058.6-.145.754-.121-.718.302-1.278.587-1.933.904l-.182.165q-.415.223-.808.438c-.219.118-.526.307-.639.34-.19.063-.172-.025.063-.213.085-.069.113-.121.19-.203q-.264.146-.475.267c-.137.086-.265.163-.386.24-.272-.107-1.285.582-2.025.964.222.06.384.106.547.155.141-.05.573-.355.317-.025l-.3.004c-.288.252-.615.503-.856.754-.365.37-.668.556-.962.682-.116.051-.181.045-.252.065-.481.415-.799.788-1.358 1.218.099-.212.2-.395.314-.597-.174.123-.32.207-.451.323-.136.114-.277.251-.416.376l.017-.023c.166.137 0 .513-.33 1.095l-.514.409c-.136.423.31.12.907-.39.03.112.052.205.087.33.278-.331.517-.554.737-.792.144-.011.22.036-.047.36-.47.563-.226.571-.092.625.16.065.668-.335 1.212-.777-.083.143-.14.248-.21.368-.275.226-.54.428-.824.69.092.15.178.288.265.426-.326.355-.642.698-.922 1.052-.29.35-.575.69-.829 1.048l-.213-.323c-.091.085-.243.228-.39.371l-.008-.089c.244-.354.494-.708.742-1.01.184-.092.295-.146.421-.206q.161-.216.317-.427c.116-.138.23-.284.366-.445-.092.016-.162-.04-.284.062-.265.216-.492.362-.734.557a4 4 0 0 0-.804.854c.443-.71-.209-.12-.267-.214.269-.403.548-.8.788-1.147-.287.114-.515.202-.764.303a10 10 0 0 1-.577.579c-.181.176-.334.297-.373.261-.105-.092-.38.242-.584.398-.321.235-.619.495-.905.716-.188.146-.36.246-.63.734L3.87 37c-.162.294-.307.56-.477.875l.15.348c-.212.469-.357.876-.539 1.32-.215.031-.45.167-.828.87-.022-.088-.021-.264-.06-.213-.165.211-.32.34-.487.532-.158.194-.322.45-.51.909.153-.121.338-.343.423-.319.13.038.057.392-.17.912.023.601.34.174.668-.164-.1.532-.243.96-.396.99-.21.045-.526.344-.42-.499-.141.492-.251.796-.322 1.13l.167.289q-.142.393-.257.718c-.019.311.254.019.064.72-.07-.1-.131-.193-.217-.32-.094.543-.201.978-.239 1.372-.118.283-.237.56-.402.953.136.064.219.108.347.17L0 48.787c.091.099.166.182.252.261.081.248.068.53.044.82-.028.293-.051.59.018.87-.106.125-.188.224-.291.343.149.37.255.711.409.961.143.254.269.514.381.977.199.68.217.764-.004.815-.021.005-.044-.008-.077-.013l.242.67c-.127-.085-.207-.143-.295-.2.039.212.093.394.16.637-.137-.033-.346-.343-.296.247.239.18.403.88.655 1.32.284.567.375 1.257.729 1.751.006.262.12.649.05.63-.112-.04-.334-.328-.49-.523-.03.229-.034.36.04.594.072.235.19.582.483 1.22-.016-.383-.086-.953.278-.689.085.292.193.554.333.914.02-.205.035-.343.05-.509.327.376.612.736.972 1.123q-.143.097-.27.186c.234.177.36.125.557.327.11.111.236.28.362.462l.415.528c.103.017-.206-.502.129-.158.082.22.172.441.307.684.139.24.336.496.594.785l-.784-.677c.139.385-.43-.354-.306.024-.298-.431-.526-.745-.752-1.084-.064.005-.137.008-.23.012.24.35.457.614.62.838.183.343-.166.15.223.666.3.189.301-.169 1.017.69 0 .039-.005.117-.012.213.397.177.66.296.923.415l-.415-.484q.283.236.396.468c.13.241.252.491.467.828.103-.06.15-.115.232-.127.086-.012.207.014.306.023.228.23.403.434.548.615.152.178.273.336.379.486.215.296.356.57.624.847-.428-.1-.88-.338-1.022-.165.439.247.659.372.81.458.171.103.298.2.545.389-.066-.006-.128-.01-.244-.017.425.293.811.695 1.206.836l.164.154c.082.078.157.156.15.153-.211-.016-.458-.067-.652-.101.157.288.44.631.833.974q.287.263.626.542c.224.183.473.359.723.54l.676.083.027.026c-.268-.283-.678-.563-1.124-.86-.43-.309-.918-.619-1.328-.957.196.009.38.014.565.016.252.167.448.308.63.413.544.33 1.125.63 1.683.963.572.323 1.143.64 1.738.976.148.08.422.209.48.218.38.05.883.357 1.376.552.072-.003.144-.006.184-.006.263.124.515.246.764.366q.382.166.741.32l.32-.025c.446.236.876.41 1.296.604l.18.016-.967-.64c.2.02.423.041.711.072.267.174.44.288.672.443.337.051.661.076 1.011.115.217.08.455.168.5.186.212.257.405.454.642.706.362-.001.619-.005.879-.006.035.075.213.136.54.194.059.012.146.106.234.171.411.026.705.04 1.04.071.143.011.52.074.55.09.3.164 1.224.241 1.54.386.022.01.617.074.71.061.3-.049.57.025.912.09.213.038.422.08.588.112.31-.019.592-.013.861.001.272.007.523.029.772.06.493.058.953.158 1.449.202.182-.076.325-.134.42-.175.72.001 1.411-.04 2.096-.078.685-.023 1.359-.107 2.05-.165.046.044.108.095.14.123l2.249-.15.249-.093c.489.05 1.116-.122 1.62-.1q-.05.28.2.28c.102-.076.143-.154.322-.23.203-.086.748-.143 1.023-.1.63.094 1.466.059 2.445-.052-.17.189.456.187 1.432.123-1.173.219-2.15.402-3.127.583l.067.023c.55-.05 1.1-.096 1.602-.141.42.033.82.063 1.231.097.282-.097.518-.18.754-.263-.135-.004-.334-.007-.787-.016l1.834-.145-.689-.473 1.023-.151c.426-.059 1.812-.057 1.723.011-.238.186.394.08.84.042l-.036.009.067-.204 2.382-.256c.137.048.224.091.39.123.091.018.392.022.47.01.161-.03.366-.09.325-.112-.23-.119.34-.091.718-.116l-.734.281c.833.155 1.968.182 3.378.031l.957.108c.196-.13.188-.263.57-.344.533-.112.988-.22 1.254-.37l.264.08c.483-.106.928-.25 1.614-.17zM3.263 40.941c.25-.265.234-.158.03.461-.128.074-.14-.251-.4.255l-.017-.21c-.014-.279-.119-.228-.362.354.02-.43.223-.748.469-1.066.03-.251.053-.465.085-.705.378-.384.074.57.456.137-.101.413-.282.734-.447.848-.192.13-.129.336-.22.463.134-.183.27-.392.41-.54zm.562-1.852c-.072.039-.149.078-.267.144.224-.423.427-.78.628-1.116.207-.354.367-.71.505-.93.349-.307.582-.515.89-.788-.041.084-.113.274-.182.358-.195.23-.363.447-.488.647a1.6 1.6 0 0 0-.216.564l-.184.226q.021.051.051.147c-.182.254-.333.5-.483.753l-.284.022.027-.027zm63.32 34.771c.689-.035 1.3-.07 1.978-.103-.123.135-.428.251-1.076.344-.44.063-.954.143-1.305.056zM52.806 19.962c.522-.036 1.098-.079 1.968-.14-.602.12-1.09.176-1.185.29-.096.113-.833.175-1.737.274zm-11.993 1.75q.724.074 1.405.145c-.356.12-.602.073-.887.09-.28.014-.598.075-1.067.14l-.176-.257.73-.116zM4.797 38.286c.593-.817.646-.84.808-.432-.11.07-.169.105-.227.143-.055.032-.107.067-.19.118-.089.203-.163.362-.322.72l-.07-.546zM3.65 43.31l-.303.1c.137-.282.268-.543.393-.799l.43-.765c-.028.315-.128.563-.244.79-.101.23-.215.44-.276.674M12.1 29.46c.494-.24.89-.448 1.314-.629l-.049.074c-.507.316-.986.66-1.63 1.103.104-.176.219-.333.36-.55zm-1.035 1.332c-.492.497-.864.922-1.434 1.207.212-.284.995-.857.725-.891l.194-.16c.169-.056.35-.107.519-.156zm23.936-7.547a2 2 0 0 1-.29-.055c.338-.071.683-.143 1.073-.202.136-.02.462-.017.568.002.063.01-.091.077-.237.108-.253.054-.572.096-.815.134-.147.01-.262.021-.299.016zM4.381 39.968c.045-.338-.174-.26.022-.808l.455-.05c-.177.32-.297.537-.478.858M66.546 17.9c-.936.147-1.86.168-2.795.203.956-.177 1.865-.16 2.795-.203m-34.79 4.223c.269-.175.272-.175 1.129-.232-.353.073-.705.146-1.129.232M142.691 68.38c.623-.044 1.051-.072 1.483-.104l-.011.051c-.494.101-.94.142-1.472.05zm-84.86 6.335c.124.063.211.109.388.198-.56.003-.85.006-1.25.007.326-.079.525-.125.862-.205m-23.97-53.028c.06-.025.08-.043.123-.046.516-.058.983-.098.816.074-.42-.011-.682-.02-.94-.028M8.2 31.758c.253-.177.479-.343.458-.19-.346.29-.598.485-.458.19m-3.22 7.298s.1-.092.106-.07c.031.117-.075.327-.348.627q.121-.28.242-.557M61.06 20.194l-.08-.044 1.072-.13.08.047zm-4.884 54.54c.213-.045.312-.072.441-.088.172-.022.367-.03.748-.06-.383.148-.689.167-1.19.15zM2.728 42.54s.062-.226.065-.226c.065-.047.124-.08.183-.112l-.086.275c-.056.024-.115.056-.166.063zm7.03-9.844c.334-.225.334-.222.122.121-.047-.049-.082-.08-.121-.121m-5.555 4.224c-.033.034-.096.103-.1.098-.006-.028.008-.082.011-.127.037-.036.074-.07.125-.121-.015.048-.025.1-.039.153zM8.901 31.6l-.092.069q.05-.102.1-.204l.112-.078c-.041.07-.086.14-.124.213zm-6.51 8.89-.09.135.012-.263.09-.127-.011.258zm28.394-18.534s.219-.068.24-.067a1.7 1.7 0 0 1 .303.018c.014.002-.135.042-.269.083-.12-.013-.236-.015-.274-.031zm23.642-1.497-.002-.027.906-.072-.005.028z"/><path fill="#000" d="M167.761 66.703s-.019.007-.027.014q-.1.072-.23-.06c.097-.033.212-.034.274-.122.013-.015.071.016.111.024-.052-.127-.151-.18-.262-.244-.06.156-.223.001-.351.003.063.092.117.177.177.267l-.07.173c-.101-.053-.201.022-.274-.12-.063.01-.112.023-.165.03q-.074.006-.152.01c.137.259.112.26.358.266.023.046.058.09.007.12-.082.051-.146.126-.284.04-.029-.018-.064-.001-.098-.01-.063-.014-.123-.037-.212-.064l-.051.052-.008-.092-.25.006.009.114c.036.028.071.053.104.083.163.16.29.178.391.047q.03-.04.073-.097c.045.074.074.125.106.175-.168.156-.413.125-.645.124l-.122-.102c-.048.03-.081.068-.128.075-.052.006-.116-.016-.172-.026.157.297-.015.3-.181.316.042.044.066.067.094.098q-.038.029-.047.038c-.076-.047-.138-.087-.211-.131q.042.217-.136.225c-.022.002-.047.004-.057.016-.048.062-.123.032-.197.015-.014-.001-.027.003-.057.01.04.023.061.032.081.044a1 1 0 0 1 .069.06c-.058.182-.058.185-.223.207-.086.01-.178.005-.264.01-.006 0-.007.014-.01.022l.128.096c-.035.02-.084.03-.08.046.031.176-.122.19-.159.316l-.113-.119c-.057-.057-.155-.06-.142-.003q.06.025.13.051c.009.117-.063.123-.127.13-.094.008-.146.051-.122.186-.081-.08-.142-.14-.199-.088q.033.122.077.26c-.035.019-.101.027-.102.06-.006.135-.112.127-.196.153-.047.015-.092.04-.145.042-.05.001-.015.124-.109.064-.009-.004-.044.082-.066.123-.007.012-.02.018-.031.028-.136-.096-.233-.127-.248-.073q.038.05.081.103c-.016.015-.023.026-.034.036-.106.072-.284.07-.25.29.001.008-.01.018-.018.024-.042.026-.045.093-.134.064-.048-.016-.098.066-.142.1-.072-.056-.123-.146-.192-.093.029.04.057.076.104.142-.145.04-.279.072-.415.108.03.029.059.051.095.085-.084.093-.151.199-.246.268s-.169.191-.344.122c-.017-.007-.037.022-.061.035q.051.041.077.058-.09.162-.184.316c-.018.03-.051.069-.076.06-.086-.03-.115.025-.163.057-.098.064-.134.064-.307.035-.042-.007-.084-.01-.154-.015.051.052.081.08.109.111-.08.12-.3.007-.353.19.064-.005.111-.012.158-.018l.013.024c-.065.06-.133.125-.192.183-.125-.136-.166-.02-.244-.02q.066.134-.097.222l-.038-.058c-.19.096-.307.273-.507.353-.122.046-.208.156-.307.239-.17.145-.333.303-.512.437-.097.074-.219.112-.332.166.147.066.022.207.159.25-.129.124-.246.24-.362.355q-.093-.088-.236.052c.011.027.017.068.038.086.123.105.159.289.311.369.017.01.041.058.046.085.023.194.198.291.302.434.109.01.169.129.199.199.055.132.14.248.216.365.083.127.127.264.22.387.084.11.217.17.265.311 0 .009.021.02.029.023.063.023.098.076.139.134a.27.27 0 0 0 .135.087c.228.054.38-.06.401-.288.012-.127.052-.147.177-.126.071.014.152.021.203-.005.182-.09.352-.193.525-.296a.2.2 0 0 0 .087-.099c.041-.15.205-.158.277-.275.01-.015.037-.017.057-.016.117.004.173-.067.21-.168.025-.069.058-.105.142-.103.059.001.103-.067.138-.117.033-.044.042-.106.115-.104.112.005.159-.068.199-.155.019-.04.04-.09.079-.101.081-.023.127-.077.181-.137.046-.051.15-.037.23-.055q.007 0 .013-.01c.079-.095.145-.212.295-.218.027-.002.04-.053.054-.085a.5.5 0 0 0 .038-.123c.014-.071.053-.108.132-.097.104.014.154-.054.213-.115.114-.112.244-.203.37-.3.01-.009.03-.002.047-.003.086-.002.132-.056.183-.113a.3.3 0 0 1 .157-.096c.121-.018.205-.08.243-.198.023-.071.068-.103.138-.122.151-.04.237-.18.406-.194.03-.003.052-.043.072-.073a.5.5 0 0 1 .228-.18c.079-.031.134-.108.196-.169.044-.043.071-.128.129-.136.137-.022.196-.121.26-.224a.26.26 0 0 1 .091-.091c.104-.056.202-.12.251-.24.012-.03.043-.06.076-.06.144-.008.224-.092.278-.217.017-.04.05-.079.091-.09a.48.48 0 0 0 .273-.215.23.23 0 0 1 .088-.074c.099-.06.212-.103.258-.23a.06.06 0 0 1 .045-.034c.186 0 .274-.122.331-.283.023-.06.063-.083.134-.066.1.023.164-.013.208-.092.053-.102.121-.197.19-.305.157.077.248.002.317-.117.031-.059.06-.12.101-.168.023-.026.068-.055.1-.041.184.08.278-.003.367-.116.043-.056.102-.12.171-.13.135-.02.2-.114.273-.206.023-.03.05-.068.086-.071.138-.017.204-.108.259-.224a.15.15 0 0 1 .107-.082c.119-.014.207-.063.26-.17.029-.059.071-.126.129-.134.19-.026.294-.151.371-.314.014-.029.042-.067.07-.064.185.016.25-.117.335-.239.05-.07.12-.14.202-.158a.35.35 0 0 0 .249-.19.45.45 0 0 1 .203-.183.9.9 0 0 0 .253-.219c.044-.05.08-.081.158-.085.142-.008.266-.049.33-.19a.6.6 0 0 1 .097-.153l.579-.68a1.855 1.855 0 0 0-.869-2.975.5.5 0 0 1-.157-.077.47.47 0 0 0-.289-.094.22.22 0 0 1-.125-.032.76.76 0 0 0-.343-.115c-.051-.007-.096-.05-.127-.093-.07-.1-.172-.123-.28-.148a.7.7 0 0 1-.244-.092c-.091-.063-.182-.111-.305-.088-.08.015-.137-.008-.172-.09-.055-.14-.173-.186-.301-.215-.065-.015-.135-.045-.173-.101-.091-.132-.228-.169-.379-.182-.096-.01-.212-.003-.241-.12-.041-.17-.171-.19-.296-.18s-.176-.048-.221-.153c-.024-.057-.067-.11-.119-.127-.086-.03-.186-.025-.274-.048-.065-.018-.119-.064-.177-.095-.05-.03-.095-.074-.152-.083-.133-.023-.27-.029-.41-.043-.015-.04-.018-.113-.05-.133-.1-.064-.206-.109-.345-.07-.085.024-.166.019-.255.029-.004-.059-.002-.103-.011-.139s-.018-.088-.043-.097c-.14-.042-.279-.109-.429-.094-.116.009-.175-.034-.234-.11q-.024-.035-.056-.074-.085.062-.174.123c-.026-.04-.043-.08-.073-.106-.069-.061-.078-.206-.204-.187-.13.018-.187-.067-.206-.199-.002-.028-.012-.055-.016-.071-.108-.017-.211-.02-.3-.054a.32.32 0 0 1-.16-.15.16.16 0 0 0-.121-.093c-.117-.027-.243-.034-.318-.142-.107-.154-.26-.222-.436-.256-.085-.016-.181-.039-.229-.107-.043-.061-.09-.052-.147-.061-.141-.025-.303-.03-.407-.113a.72.72 0 0 0-.412-.174c-.085-.007-.177-.02-.205-.123-.035-.123-.122-.169-.228-.163-.169.008-.269-.09-.355-.223-.149.02-.284.005-.387-.103-.046-.05-.13-.063-.206-.062-.103 0-.177-.025-.185-.159-.002-.027-.015-.051-.029-.084-.184.07-.321-.008-.442-.093-.156-.108-.338-.155-.511-.219-.066-.026-.126-.043-.154-.124-.011-.033-.064-.062-.094-.049-.104.047-.17 0-.247-.028-.215-.075-.391-.217-.572-.353-.088-.066-.2-.099-.296-.153a3 3 0 0 1-.298-.18c-.053-.035-.091-.093-.196-.043.076.148.161.275.269.375.057.051.135.118.133.199-.004.095.04.114.074.159l.2.126-.023.035-.177-.161c-.063.114-.137.133-.213.095-.043-.022-.082-.052-.125-.071-.084-.038-.168-.073-.274.027.03.168.02.356.164.453-.111.042-.154-.01-.199-.054-.067-.067-.152.012-.227.024-.085.012-.083.11-.101.13-.087.024-.174.02-.201.061-.087.135-.161.08-.246.1-.134.036-.229-.006-.328-.06-.018-.01-.047.004-.072.006l-.012.026.119.088c-.051.21-.082.24-.187.14-.088-.085-.174-.15-.312-.134-.033.003-.061-.029-.092-.04l-.138-.045-.005.464c.006.005.032.017.048.043.066.093.188.117.211.26l-.001-.006c.026.01.059.01.083.027.089.068.189.128.26.217.043.052.001.186.084.216-.043.087-.088.122-.143.095a1 1 0 0 1-.114-.063l-.223-.178c-.186.18-.286.048-.416.025.198.149.4.297.613.459-.047.034-.074.05-.1.07l.002.03q.101-.028.224-.057c-.005-.061-.005-.1-.006-.153.087.007.165.015.258.021l.054-.339.306.096c-.004.196.011.208.23.202q.02-.092.038-.193c.138-.055.258.022.395-.081.015-.013.045.013.066.025.02.013.042.042.064.034.122-.043.102.062.1.14q.077-.006.134-.005c-.019.08-.031.14-.046.2.151.004.15-.183.238-.232.003-.07.004-.129.004-.196.086-.01.071.05.062.11-.009.068-.034.137.014.186.076.075.144.161.218.248-.067.063-.129.127-.089.21.055-.004.07-.173.135-.083l-.037.129c.053-.038.082-.057.111-.082a1 1 0 0 0 .082-.084c.064-.078.129-.312.083-.328-.134-.042-.029-.148-.016-.23.064-.005.118.002.169-.014a.19.19 0 0 0 .128-.152c.009-.06-.001-.12-.053-.096-.107.053-.161-.035-.25-.028-.014.001-.022-.032-.034-.05.057-.01.098.009.14.014.045.005.092.004.134-.067.079-.129.16-.127.242-.083.037.02.07.045.114.072.111-.143.189-.328.348-.396.016-.007.032-.053.046-.082.09.085.087.119-.013.224-.02.024-.044.07-.043.093.016.09-.038.115-.093.125-.044.009-.084-.002-.142-.006.007.162-.071.274-.179.386.066.02.117.038.169.053-.051.138-.123.105-.18.118-.088.018-.172.013-.25.017l-.121.224c.092.082.107.27.265.286.069-.114.128-.214.197-.325.01-.049-.1-.06.005-.177.053.1.102.193.168.325l.052-.4c.041-.015.096-.056.128-.041.077.03.13-.014.178-.104-.01-.027-.018-.054-.039-.108.091-.019.159-.04.225-.043.025-.002.058.028.06.053.002.16.114.176.21.227l-.449.233.096.157c-.074-.016-.133-.028-.193-.043-.103.173-.098.343-.085.506l.105-.008-.131.175c-.007.087.008.175-.025.247-.067.14-.019.222-.016.364.061-.108.098-.177.137-.248a.6.6 0 0 1-.024-.266c.004-.053.107-.089.098-.063-.031.103.086.105.047.208-.012.029.008.067.022.132.087-.132.12-.032.191-.01l.012-.232.107.076c.023-.055.04-.09.054-.125l.02.004q-.007.148-.013.291c.104-.086.121-.084.125.032.004.053-.005.112-.009.169.001.008-.015.017-.023.026-.035-.014-.066-.028-.104-.042-.064.204-.063.217.025.308q.085-.157.175-.318c.1-.01.051.183.179.148.004-.095.033-.187.164-.223l-.072.288.096-.08.254.139-.178.217c.039.04.028.146.107.16.015-.102.027-.192.041-.3.051.013.077.03.107.023.066-.017.094.126.187-.001.02.043.053.068.103.061-.015.032-.025.078-.046.093-.042.034-.09.055-.165.094.126.052.204.12.19.29.119-.155.05-.286.109-.447l.178.198.053-.032q.041.04.079.083c.021.023.062.04.061.07-.001.05-.04.095-.091.113-.019.007-.037.025-.063.047.036.033.065.056.092.08-.095.2.051.246.072.407.069-.151.118-.261.171-.374.005-.042-.051-.074.047-.146-.023.066-.039.106-.053.15.056-.005.112-.001.172-.014.088-.021.106.033.099.117-.003.034-.017.069-.023.097.067.045.164-.002.211.095-.06.05-.116.093-.179.14.014.03.019.06.034.078s.039.027.057.043h-.006a1 1 0 0 1 .365-.358c.011.038.022.076.033.106.133-.12.126-.239.07-.346l.151-.207-.147-.027c.03-.075.067-.142.138-.157.124-.02.175-.145.233-.255.071-.134.019-.217-.038-.304l.104-.067c.028.045.057.085.088.133.082-.127.16-.242.234-.357l.367.133-.177.263c.008.021.019.057.033.092l-.036.042c-.062-.012-.125-.027-.181-.036.014-.071.021-.116.029-.164l-.171-.009c-.016.049-.055.113-.045.137.047.1-.008.291.15.304-.151.031-.098.172-.151.249-.08.006-.163.016-.232.024l-.083.327c.053.038.107.145.062.221-.061.103-.016.139-.014.2-.001.098.001.195-.005.293-.003.067-.015.13.069.134.047-.107.1-.214.147-.321l.147.019c.055-.074.114-.149.159-.208l.248-.034c-.057.127-.091.25-.007.327-.034.036-.083.077-.082.09.014.116-.048.28.074.346.019-.077.022-.155.056-.216.054-.094.127-.122.189-.068.156-.108.163-.264.179-.414.109-.036.162.004.123.1-.06.133-.094.3-.27.361l.168.046.125-.147q.041.05.074.092c.065-.022.097-.181.176-.104-.046.054-.086.105-.145.174.077.027.138.05.192.071.009.072.017.144.031.243.062-.091.099-.15.159-.239l.057.264c.051-.063.092-.11.132-.161.128-.08.137.103.246.075-.027.083-.046.152-.071.229.098-.06.179-.104.257-.163a.45.45 0 0 1 .234-.11c.125-.01.134 0 .054.154-.007.015-.017.027-.029.047l.134-.03-.125.155c.032.011.058.02.092.035-.052.08-.144.142-.103.248.1-.114.191-.06.289-.087.123-.035.147.13.279.07.005.072.026.151.003.184-.043.056-.113.084-.174.122-.025.175-.021.189.129.33.019-.146.008-.293.139-.424.024.049.047.091.079.153.021-.094.035-.156.049-.233.1-.04.191-.079.297-.12q-.06.125-.118.237c.073-.058.125-.152.184-.179.064-.03.134.004.196.01.037-.05-.024-.121.066-.148.015.116.042.217.158.23l-.2.08c.008.109-.12.069-.117.18-.064-.037-.114-.06-.163-.09a3 3 0 0 1-.09.138q.089.025.143.042c.03.061-.074.156.005.197.084-.065.13-.247.279-.195-.006.02-.02.063-.032.117.114-.11.192-.18.27-.253l-.076-.047q.065-.02.07.05c.008.064.019.13.032.224.046-.085.073-.14.105-.19s.07-.095.103-.14c.16.08.108.307.165.426-.119.124-.235.205-.316.374q.195-.108.277-.09c-.02.027-.041.051-.079.099.083-.012.111.094.203.02 0 0 .033.065.028.07-.064.078-.133.15-.19.21-.039.25.046.407.141.55l.183-.192v.008c-.005-.204-.175-.204-.27-.316l.178-.22c.037.013.061.033.092.034a.72.72 0 0 1 .47.171c.016.016.053.027.066.015.091-.083.138-.011.198.012.021-.021.041-.045.052-.057q.083.073.158.135c.041-.045.064-.072.09-.099q.053.099.101.184l.037-.027.001-.305c.042-.028.087-.06.147-.103v.212l.193-.105.043.058c-.047.168-.089.308-.14.483.079-.06.134-.103.189-.147-.023.058-.007.08.03.09.005 0-.014.071-.024.117.07-.031.123-.06.178-.076.021-.007.065.012.063.023-.019.116.123.082.105.198 0 0 .009.008.023.012l-.091-1.15c-.013.017-.027.046-.023.063.026.09-.016.087-.072.083q-.05-.002-.089.002c.002.231-.182.162-.327.163q.05.112.075.172c-.103.14-.199.264-.3.398-.033-.034-.073-.072-.091-.093l-.225.143q.007.031.02.077c-.101-.034-.084.107-.168.097q-.163-.221-.196-.22c.033.062.071.124.093.186.022.07-.021.122-.085.09-.148-.069-.242-.033-.316.065-.09-.152-.175-.143-.277-.084l.09-.493-.024-.018c-.05.043-.096.089-.14.129l-.234-.066.053.217c.02-.002.051.001.12.004-.07.056-.113.087-.17.134q.202.193.383.368-.027.07-.054.13c-.023.052-.22.065-.25.009-.079-.15-.105-.059-.144-.025l-.001-.008c.038.055.079.11.113.16-.06.078-.119.15-.182.227-.048-.035-.087-.071-.13-.093-.023-.012-.071-.014-.073-.002a.16.16 0 0 0 .021.093c.105.092.006.075-.031.1q-.034-.116-.065-.23c-.21-.114-.389-.124-.496.01l-.201-.077c.05.105.134.21.128.28a.6.6 0 0 0 .047.306c-.044-.032-.065-.045-.086-.06-.004.09.02.208-.127.15zm-2.195-5.185c-.002-.095.032-.126.141-.12-.023.071-.114.143-.061.214l-.066.055c-.078.062-.099.122-.02.17-.114.072-.128-.007-.146-.084l-.18.115c.007-.157.191-.189.185-.336.09-.032.126.01.108.09-.024.093.051.017.056.048-.007-.053-.019-.102-.02-.155zm-.384.111c-.011.037-.022.074-.037.134-.064-.028-.111-.058-.168-.073s-.121-.013-.16-.015l-.022-.275c.017-.004.065-.03.075-.014.05.077.111.108.211.028l.02.046c.016-.018.038-.048.066-.081q.05.043.096.085l-.081.176zm2.341 5.52a6 6 0 0 1-.218.101c-.064-.11-.091-.202-.055-.283.023-.055.048-.12.151-.06zm-8.579-8.19c-.053-.034-.109-.071-.197-.126.098-.03.158-.012.218-.1.063-.087.138-.048.247-.02-.107.097-.182.168-.268.247m1.635-.009q-.013-.156-.021-.302c.082-.06.076.01.1.034.027.023.076.008.138.014l-.114.246-.105.008zm4.636 2.294c-.096-.12-.092-.14.095-.379-.01.049-.013.074-.02.1q-.006.031-.015.085l.146-.026c-.09.096-.147.16-.206.22m1.13-.438c-.023.055-.044.11-.077.187l-.147-.276c.16-.088.143.078.224.089m-2.829.28-.044-.278.026-.025c.06.049.119.094.196.158-.054.046-.107.086-.178.145m.383-.234c.118-.023.21-.03.211.126-.075.036-.149-.086-.222.084l-.027-.02zm-2.194-2.502a1 1 0 0 1-.007.084c-.057.019-.114.04-.17.042-.019.001-.037-.045-.036-.073-.001-.016.043-.056.067-.064.044-.014.083-.012.119-.015.015.01.026.015.027.023zm3.924 2.669c-.095.066-.136.184-.25.212.04-.092.08-.182.122-.283.047.027.079.044.125.068zm-8.587-2c.133-.01.203.09.282.175-.148.032-.2-.095-.282-.175m4.31.746q-.1.114-.175.042zm-1.209 12.479-.148.095-.032-.042c.01-.084.047-.12.177-.053zm8.183-5.862c-.057-.048-.096-.084-.174-.153.078-.007.117-.012.172-.02-.001.065 0 .104.002.17zm-7.305-6.532c-.015.012-.025.027-.031.025-.063-.015-.112-.039-.016-.17.022.066.036.104.047.142zm2.659 2.063c-.013-.055-.028-.098.028-.164.038.05.061.093-.028.164m1.844-1.028s.002-.04.01-.051c.046-.054.08-.043.093.051a1 1 0 0 1-.103 0m-7.002-3.17-.016.05-.132-.024.018-.051.133.025zm10.028 8.636c-.003.036-.001.061-.008.076-.013.017-.034.027-.068.055-.035-.123-.003-.14.078-.132zm-2.714-4.802s-.039-.002-.037-.005q.015-.05.028-.1l.048.002q-.02.052-.039.1zm-1.412-1.001q-.014-.076.079-.132zm.158 1.53s.007.025.002.028c-.013.015-.026.024-.042.037q0-.015-.005-.033l.042-.031zm-.805-.48.007.016-.06.05-.007-.022zm1.375.605.01.027-.073.056-.008-.027zm-3.848-2.127-.04.017a.2.2 0 0 1-.003-.067c0-.006.024-.013.048-.023-.003.03.002.053-.005.075zm-2.221-1.755-.012.023-.093-.05.014-.024.094.05z"/></svg>